<svg width="103" height="104" viewBox="0 0 103 104" fill="none" xmlns="http://www.w3.org/2000/svg">
<g clip-path="url(#clip0)">
<path d="M71.829 63.5641C92.321 48.8566 90.795 17.9398 69.1321 5.21723C69.066 5.17087 68.9945 5.13 68.9191 5.09464C56.0504 -2.34086 39.5511 -0.840714 28.1802 9.3829C27.5602 9.94005 27.5091 10.894 28.0663 11.5133C28.6234 12.1333 29.5774 12.1836 30.1974 11.6264C37.6086 4.96341 47.712 2.1635 57.446 4.01256C57.3069 5.65651 56.162 7.43641 54.9109 8.62615C52.4536 10.9632 42.278 8.94677 38.5822 17.0274C38.0659 18.1543 37.354 20.1558 36.7143 21.1585C36.3898 20.0269 36.1249 18.2494 34.6987 17.0431C33.8429 16.3194 32.9274 15.9996 31.9773 16.0915C30.2689 16.2589 29.0839 17.7433 28.3751 18.6297C26.8781 20.5047 27.5445 22.188 28.0301 23.4178C28.4804 24.5549 28.8686 25.5364 28.1456 27.1717C27.4525 28.741 28.8922 30.4541 29.3652 31.0167C31.3047 33.3239 36.1713 37.1493 39.137 36.4146C46.3753 34.615 48.4247 46.4119 53.2434 47.6409C56.8519 48.5611 60.3229 50.6483 59.8852 52.5492C58.5367 58.402 52.9833 57.83 49.5013 59.3733C47.5839 60.2236 44.1113 62.6369 41.7805 65.5892C39.9401 65.0022 38.172 64.2565 36.4927 63.3622C36.7206 62.831 36.9713 62.2754 37.2487 61.6915C39.7704 56.3982 39.6038 53.6423 33.6386 48.7183C30.7797 46.3584 31.7667 43.1672 33.0987 40.9064C33.9474 39.466 33.5278 37.5965 32.1431 36.6511C29.9915 35.1793 23.6908 31.4073 20.751 27.0664C21.8339 22.9934 23.6735 19.245 26.2321 15.9116C26.7398 15.2499 26.6148 14.303 25.954 13.7953C25.2923 13.2877 24.3454 13.4126 23.8385 14.0735C15.4074 25.0586 13.8868 40.8584 21.958 53.7609C32.5934 70.7623 55.1828 75.2172 71.488 63.8046C71.6428 63.7252 71.7355 63.6514 71.829 63.5641ZM71.3913 60.112C71.1336 57.782 73.2451 54.2867 75.1507 51.1331C77.6489 46.9997 80.0079 43.0957 78.1321 40.3052C76.3538 37.6609 73.7291 38.7281 70.6573 36.193C68.857 34.707 67.1816 32.8257 68.1678 27.6793C68.4468 26.2208 69.8495 24.4048 72.1166 22.5659C73.594 21.3676 74.1464 19.3417 73.4903 17.5256C73.2286 16.8011 73.2176 16.3328 73.2883 16.1512C74.3712 13.3718 69.7851 11.8755 69.3875 8.92948C87.1731 20.9935 88.0446 46.8017 71.3913 60.112ZM19.9707 30.9319C23.411 34.74 28.1346 37.565 30.441 39.143C30.5204 39.1964 30.5448 39.2962 30.4992 39.3748C27.8132 43.935 28.2572 48.1894 31.718 51.0459C37.4428 55.7711 36.0841 56.7872 33.8798 61.8039C24.0758 55.2964 18.2254 43.4273 19.9707 30.9319ZM45.0276 66.4426C46.8994 64.4435 49.3206 62.7547 50.7248 62.1324C53.6002 60.8585 61.031 61.022 62.8266 53.2258C63.7672 49.1434 59.0664 46.0103 53.9899 44.7161C51.223 44.0104 47.8401 31.1448 38.4109 33.485C38.2207 33.5298 37.288 33.4182 35.5419 32.3322C33.1081 30.8179 31.34 28.8683 31.0178 28.1288C32.0897 25.4766 31.3392 23.5773 30.8371 22.3074C30.3758 21.1405 30.3664 20.9731 30.7334 20.5134C31.0053 20.1731 31.832 19.1382 32.2712 19.0949C32.3726 19.0832 32.5518 19.179 32.7498 19.3472C33.9946 20.4002 33.3596 23.9954 36.1076 24.5179C39.0466 25.0759 40.216 20.7114 41.3263 18.2824C44.3337 11.7074 53.3346 14.2904 56.991 10.8123C58.8904 9.0057 60.0895 6.81167 60.3976 4.71823C62.5248 5.3351 64.5601 6.16101 66.4807 7.18101C65.5581 11.5754 69.3702 14.0987 70.3634 15.3992C70.1214 16.2919 70.2181 17.3504 70.6518 18.5504C70.8719 19.1602 70.6966 19.8321 70.2157 20.2218C68.2213 21.8391 65.7334 24.3474 65.2037 27.1112C63.966 33.5738 66.2952 36.505 68.736 38.5206C74.4097 43.2033 79.2677 38.4852 72.5677 49.5717C70.0546 53.7303 67.2484 58.3761 68.7651 62.0003C61.9669 66.3915 53.5169 68.2092 45.0276 66.4426Z" fill="#A68D7C"/>
<path d="M24.7435 87.8477C25.0382 88.2564 25.4995 88.4733 25.9678 88.4733C27.1749 88.4733 27.9198 87.0918 27.1898 86.0812C25.2087 83.3363 16.4334 78.7502 11.7491 74.1303C9.93222 72.3379 6.74805 66.1479 5.91271 63.539L3.85149 56.1184C3.61417 55.2634 4.86049 54.7157 5.29584 55.6728C7.69811 60.7948 7.904 61.8392 9.10867 63.3912C11.8779 66.9597 15.4731 69.9018 19.5154 71.9182L25.9411 78.3793C26.2358 78.6763 26.6232 78.8241 27.0106 78.8241C28.3434 78.8241 29.0278 77.2037 28.0809 76.2513L21.5963 69.7305L19.04 65.7589C18.6093 64.8725 19.7543 64.0073 20.511 64.7892C29.2832 74.0117 28.8636 73.7335 29.3162 73.9535L38.7312 78.527C43.8705 81.0236 43.5028 86.467 43.6254 86.8545C43.7016 87.6843 44.434 88.2933 45.2662 88.2187C46.0968 88.1424 46.7074 87.4077 46.6312 86.5778L46.4984 85.1335C46.1306 81.1376 43.6592 77.5652 40.0499 75.812L30.8824 71.3587L22.6917 62.7028C21.3912 61.3583 19.3213 61.0872 17.7693 62.0585C16.3689 62.9346 15.7073 64.5668 16.0043 66.1118C14.3274 64.7711 12.8068 63.2333 11.4921 61.5406C10.6261 60.4247 10.5994 59.9171 8.04309 54.4234C7.29105 52.7684 5.48836 51.8482 3.7564 52.234C1.65117 52.704 0.365554 54.8469 0.943137 56.9254C3.72025 66.9212 2.83855 63.8242 3.02794 64.4262C3.97958 67.4257 7.38692 74.0675 9.62968 76.278C12.1844 78.7982 15.7709 81.2468 18.9347 83.407C20.247 84.3029 23.9718 86.7798 24.7435 87.8477Z" fill="#A68D7C"/>
<path d="M99.6256 52.3409C97.7837 51.7224 95.7892 52.5892 94.9861 54.355C92.4039 59.9068 92.3756 60.4215 91.5065 61.5406C90.1918 63.234 88.6712 64.7719 86.9942 66.1125C87.2913 64.5676 86.6288 62.9346 85.2293 62.0592C83.6781 61.0879 81.6074 61.3582 80.2958 62.7146L72.1162 71.3587L62.9495 75.812C56.1096 79.1345 56.5002 86.2187 56.3619 86.6407C56.2857 87.4713 56.8963 88.2053 57.7261 88.2815C58.5544 88.3585 59.2907 87.7471 59.3669 86.9173C59.4887 86.5314 59.1186 81.0275 64.2681 78.527C74.1208 73.7036 73.7633 74.0093 74.1192 73.6337L82.4765 64.801C83.2529 63.9986 84.3869 64.8772 83.9578 65.7589L81.4023 69.7305L74.9176 76.2513C73.9699 77.2037 74.656 78.8241 75.9879 78.8241C77.1337 78.8241 77.1808 78.0414 83.4832 71.9174C89.3486 68.9926 93.8451 64.1597 95.1197 61.3559L97.7341 55.6036C98.1106 54.7746 99.4048 55.1919 99.1282 56.1883L97.0858 63.5381C96.2505 66.1479 93.0663 72.3378 91.2503 74.1295C86.5778 78.7384 77.8181 83.3174 75.8221 86.0623C75.0913 87.065 75.8229 88.4599 77.041 88.4599C77.5069 88.4599 77.9667 88.2446 78.2621 87.8383C79.7803 85.7535 88.5722 81.0102 93.3689 76.2788C95.6108 74.0674 99.019 67.4256 99.9706 64.4261C100.161 63.8226 99.3812 66.5494 102.036 56.9961C102.583 55.0237 101.525 52.979 99.6256 52.3409Z" fill="#A68D7C"/>
<path d="M46.1694 91.3135H27.6899C25.7607 91.3135 24.1914 92.8828 24.1914 94.812V99.9411C24.1914 101.869 25.7607 103.439 27.6899 103.439H46.1694C48.0979 103.439 49.6672 101.869 49.6672 99.9411V94.812C49.6672 92.8828 48.0979 91.3135 46.1694 91.3135ZM46.6496 99.9411C46.6496 100.206 46.4343 100.421 46.1694 100.421H27.6899C27.4251 100.421 27.2098 100.206 27.2098 99.9411V94.812C27.2098 94.5472 27.4251 94.3318 27.6899 94.3318H46.1694C46.4343 94.3318 46.6496 94.5472 46.6496 94.812V99.9411Z" fill="#A68D7C"/>
<path d="M75.3061 91.3135H56.8258C54.8974 91.3135 53.3281 92.8828 53.3281 94.812V99.9411C53.3281 101.869 54.8974 103.439 56.8258 103.439H75.3061C77.2346 103.439 78.8039 101.869 78.8039 99.9411V94.812C78.8039 92.8828 77.2346 91.3135 75.3061 91.3135ZM75.7855 99.9411C75.7855 100.206 75.571 100.421 75.3061 100.421H56.8258C56.5618 100.421 56.3465 100.206 56.3465 99.9411V94.812C56.3465 94.5472 56.5618 94.3318 56.8258 94.3318H75.3061C75.571 94.3318 75.7855 94.5472 75.7855 94.812V99.9411Z" fill="#A68D7C"/>
</g>
<defs>
<clipPath id="clip0">
<rect width="103" height="103" fill="white" transform="translate(0 0.438721)"/>
</clipPath>
</defs>
</svg>
