<svg width="127" height="127" viewBox="0 0 127 127" fill="none" xmlns="http://www.w3.org/2000/svg">
<path d="M118.932 63.6941C118.932 32.7953 94.3668 8.23038 63.468 8.23038C32.5692 8.23038 8.0043 32.7953 8.0043 63.6941C8.0043 94.5929 32.5692 119.158 63.468 119.158C94.3668 119.158 118.932 94.5929 118.932 63.6941ZM1.15234 63.6941C1.15234 29.4216 29.1955 1.37842 63.468 1.37842C97.7405 1.37842 125.784 29.4216 125.784 63.6941C125.784 97.9666 97.7405 126.01 63.468 126.01C29.1955 126.01 1.15234 97.9666 1.15234 63.6941Z" fill="#A68D7C" stroke="white"/>
<path d="M63.4589 104.024C48.119 104.024 34.2916 94.9153 27.9936 80.4393L34.1394 77.7078C39.0599 89.4082 50.8867 96.3866 63.4589 96.3866C76.0417 96.3866 87.8471 88.638 92.7669 77.7027L98.9323 80.4429C92.6436 95.6638 78.8207 104.024 63.4589 104.024Z" fill="#A68D7C" stroke="white"/>
<path d="M55.118 47.9911C55.118 49.9409 54.3434 51.8109 52.9646 53.1897C51.5859 54.5684 49.7159 55.343 47.766 55.343C45.8162 55.343 43.9462 54.5684 42.5674 53.1897C41.1886 51.8109 40.4141 49.9409 40.4141 47.9911C40.4141 46.0412 41.1886 44.1712 42.5674 42.7924C43.9462 41.4137 45.8162 40.6391 47.766 40.6391C49.7159 40.6391 51.5859 41.4137 52.9646 42.7924C54.3434 44.1712 55.118 46.0412 55.118 47.9911Z" fill="#A68D7C" stroke="white"/>
<path d="M86.5242 47.9911C86.5242 49.9409 85.7497 51.8109 84.3709 53.1897C82.9921 54.5684 81.1221 55.343 79.1723 55.343C77.2224 55.343 75.3524 54.5684 73.9737 53.1897C72.5949 51.8109 71.8203 49.9409 71.8203 47.9911C71.8203 46.0412 72.5949 44.1712 73.9737 42.7924C75.3524 41.4137 77.2224 40.6391 79.1723 40.6391C81.1221 40.6391 82.9921 41.4137 84.3709 42.7924C85.7497 44.1712 86.5242 46.0412 86.5242 47.9911Z" fill="#A68D7C" stroke="white"/>
</svg>
