<svg width="19" height="15" viewBox="0 0 19 15" fill="none" xmlns="http://www.w3.org/2000/svg">
<path d="M13.0528 14.7718L10.8128 12.8518C12.0502 11.6571 12.9035 10.5265 13.3728 9.45981C13.8422 8.43581 14.1195 7.39047 14.2048 6.32381L15.6768 7.41181L10.9408 7.4118L11.5168 0.755802L18.1088 0.755813L17.7248 5.42781C17.5968 7.17715 17.1915 8.79848 16.5088 10.2918C15.7835 11.8278 14.6315 13.3211 13.0528 14.7718ZM2.30082 14.7718L0.0608169 12.8518C1.29815 11.6571 2.15148 10.5265 2.62082 9.45979C3.09015 8.43579 3.36748 7.39046 3.45282 6.32379L4.92482 7.41179L0.188817 7.41179L0.764817 0.755784L7.35682 0.755795L6.97282 5.4278C6.84482 7.17713 6.43948 8.79846 5.75682 10.2918C5.03149 11.8278 3.87948 13.3211 2.30082 14.7718Z" fill="#A68D7C"/>
</svg>
