<svg width="112" height="113" viewBox="0 0 112 113" fill="none" xmlns="http://www.w3.org/2000/svg">
<path d="M74.0872 54.0742C75.296 54.0742 76.2759 53.0943 76.2759 51.8855C76.2759 50.6767 75.296 49.6968 74.0872 49.6968C72.8784 49.6968 71.8984 50.6767 71.8984 51.8855C71.8984 53.0943 72.8784 54.0742 74.0872 54.0742Z" fill="#A68D7C"/>
<path d="M74.461 61.2635C73.2662 61.086 72.1524 61.9122 71.9753 63.1079C71.3771 67.1472 67.9627 70.4973 62.842 72.0697C57.3686 73.7504 49.7713 73.187 45.1367 68.14C44.319 67.2497 42.9344 67.191 42.0443 68.0083C41.1539 68.826 41.095 70.2106 41.9125 71.1007C44.5954 74.0225 48.2395 76.0138 52.4506 76.8593C53.9376 77.1578 55.4802 77.306 57.0329 77.306C59.4313 77.306 61.8533 76.9525 64.127 76.2543C70.9011 74.1744 75.4538 69.4997 76.3055 63.7492C76.4826 62.5535 75.6567 61.4406 74.461 61.2635Z" fill="#A68D7C"/>
<path d="M104.884 41.9072C100.906 37.2953 95.4155 34.3051 88.8064 33.1041C95.134 28.8339 100.592 24.5843 104.483 20.8762C110.417 15.2225 112.406 11.2495 110.745 8.37373C108.897 5.17074 103.56 5.19285 93.9503 8.44398C85.8308 11.1908 75.7159 15.9616 65.4691 21.8777C63.6991 22.8994 61.9457 23.9456 60.2302 24.9999C58.9579 21.4067 59.797 17.3022 62.6043 13.7431C64.707 11.0772 65.1765 7.69128 63.8298 4.90613C62.418 1.98702 59.3197 0.239325 55.5365 0.231445H55.4336C42.081 0.231445 29.0207 5.49993 18.6586 15.0664C8.2836 24.6447 1.93192 37.3244 0.773642 50.7696C-0.61992 66.9618 4.55598 82.356 15.3475 94.1162C25.9484 105.669 40.9773 112.294 56.5805 112.294C64.9808 112.294 72.8668 110.757 80.0189 107.726C86.5588 104.954 92.3664 100.996 97.2805 95.9609C101.837 91.2925 105.429 85.9185 107.958 79.9878C110.364 74.3443 111.679 68.3639 111.76 62.6931C111.878 54.4464 109.501 47.2589 104.884 41.9072ZM60.486 29.9955C62.8026 28.5345 65.2152 27.0788 67.6576 25.6688C77.1317 20.1988 86.566 15.6933 94.2228 12.9821C102.652 9.99776 106.103 10.1926 106.907 10.5778C106.838 11.0871 106.205 13.3531 100.674 18.4467C96.0552 22.7 89.3107 27.7019 81.6828 32.5309C79.2714 34.058 76.7618 35.5757 74.224 37.0412C70.7253 39.0605 67.2293 40.9488 63.798 42.6776C63.1134 40.6795 62.2359 38.7406 61.168 36.8906C60.133 35.0979 58.9325 33.4147 57.5906 31.8574C58.5403 31.235 59.5066 30.6125 60.486 29.9955ZM59.8325 44.6193C53.6522 47.5502 47.9812 49.7846 43.4525 51.0808C43.2168 49.9486 42.8022 48.8542 42.2141 47.8347C41.6566 46.8684 40.9573 46.0045 40.149 45.2595C43.5394 41.9875 48.3112 38.1967 53.9301 34.3185C55.2346 35.7764 56.3911 37.3711 57.3772 39.0789C58.3969 40.8452 59.2177 42.703 59.8325 44.6193ZM107.383 62.6303C107.071 84.4099 87.5591 107.917 56.5805 107.917C42.2001 107.917 28.347 101.808 18.573 91.1568C8.62022 80.3108 3.84815 66.1009 5.13512 51.1452C7.34551 25.485 29.9093 4.6089 55.4336 4.6089H55.5319C57.6258 4.61328 59.2139 5.4161 59.8887 6.81185C60.5092 8.09488 60.2396 9.67252 59.1671 11.0322C55.2224 16.0334 54.2331 22.1844 56.4618 27.3706C55.2885 28.1265 54.1352 28.8858 53.021 29.639C53.0157 29.6425 53.0104 29.646 53.0054 29.6495C46.0455 34.3458 40.1683 39.0172 36.2579 42.9484C33.2922 41.9348 30.0336 42.2303 27.264 43.8289C22.7167 46.4556 16.7459 58.696 15.5953 61.1231C15.2871 61.7727 15.3179 62.5324 15.6773 63.1551C16.0369 63.7778 16.6793 64.1843 17.3959 64.2425C18.6056 64.3406 22.0408 64.5883 25.8643 64.5883C30.504 64.5883 35.7149 64.2232 38.2079 62.7833C40.9083 61.2245 42.7801 58.6199 43.4284 55.6257C48.7958 54.2168 55.8087 51.4606 63.404 47.7601C67.6596 45.6889 72.0362 43.3581 76.4127 40.8323C78.6328 39.5502 80.8276 38.2284 82.9608 36.8952C82.9737 36.8959 82.9861 36.8979 82.9991 36.8983C101.242 37.4214 107.557 50.5336 107.383 62.6303ZM39.2917 53.7174C39.1516 55.9186 37.9286 57.8902 36.0191 58.9924C33.9493 60.1881 26.8385 60.3492 21.0001 60.0822C23.6868 54.894 27.3811 48.8168 29.4532 47.62C31.4095 46.4906 33.7746 46.4412 35.7812 47.488C36.8841 48.0623 37.7973 48.9385 38.4224 50.0221C39.0726 51.1493 39.3731 52.4271 39.2917 53.7174Z" fill="#A68D7C"/>
<path d="M39.0674 13.7666C34.24 13.7666 30.3125 17.6941 30.3125 22.5215C30.3125 27.349 34.24 31.2764 39.0674 31.2764C43.8949 31.2764 47.8223 27.349 47.8223 22.5215C47.8223 17.6941 43.8949 13.7666 39.0674 13.7666ZM39.0674 26.899C36.6537 26.899 34.69 24.9352 34.69 22.5215C34.69 20.1078 36.6537 18.1441 39.0674 18.1441C41.4811 18.1441 43.4449 20.1078 43.4449 22.5215C43.4449 24.9352 41.4811 26.899 39.0674 26.899Z" fill="#A68D7C"/>
<path d="M28.126 72.5798C23.2985 72.5798 19.3711 76.5073 19.3711 81.3347C19.3711 86.1622 23.2985 90.0896 28.126 90.0896C32.9535 90.0896 36.8809 86.1622 36.8809 81.3347C36.8809 76.5073 32.9535 72.5798 28.126 72.5798ZM28.126 85.7122C25.7123 85.7122 23.7485 83.7485 23.7485 81.3347C23.7485 78.921 25.7123 76.9573 28.126 76.9573C30.5397 76.9573 32.5035 78.921 32.5035 81.3347C32.5035 83.7485 30.5397 85.7122 28.126 85.7122Z" fill="#A68D7C"/>
<path d="M50.0127 85.7122C45.1853 85.7122 41.2578 89.6396 41.2578 94.4671C41.2578 99.2945 45.1853 103.222 50.0127 103.222C54.8402 103.222 58.7676 99.2945 58.7676 94.4671C58.7676 89.6396 54.8402 85.7122 50.0127 85.7122ZM50.0127 98.8445C47.599 98.8445 45.6353 96.8808 45.6353 94.4671C45.6353 92.0533 47.599 90.0896 50.0127 90.0896C52.4264 90.0896 54.3902 92.0533 54.3902 94.4671C54.3902 96.8808 52.4264 98.8445 50.0127 98.8445Z" fill="#A68D7C"/>
<path d="M76.2783 81.3347C71.4509 81.3347 67.5234 85.2622 67.5234 90.0896C67.5234 94.9171 71.4509 98.8445 76.2783 98.8445C81.1058 98.8445 85.0332 94.9171 85.0332 90.0896C85.0332 85.2622 81.1058 81.3347 76.2783 81.3347ZM76.2783 94.4671C73.8646 94.4671 71.9009 92.5034 71.9009 90.0896C71.9009 87.6759 73.8646 85.7122 76.2783 85.7122C78.6921 85.7122 80.6558 87.6759 80.6558 90.0896C80.6558 92.5034 78.6921 94.4671 76.2783 94.4671Z" fill="#A68D7C"/>
<path d="M93.7862 59.4473C88.9587 59.4473 85.0312 63.3747 85.0312 68.2022C85.0312 73.0296 88.9587 76.9571 93.7862 76.9571C98.6136 76.9571 102.541 73.0296 102.541 68.2022C102.541 63.3747 98.6136 59.4473 93.7862 59.4473ZM93.7862 72.5796C91.3724 72.5796 89.4087 70.6159 89.4087 68.2022C89.4087 65.7884 91.3724 63.8247 93.7862 63.8247C96.1999 63.8247 98.1636 65.7884 98.1636 68.2022C98.1636 70.6159 96.1999 72.5796 93.7862 72.5796Z" fill="#A68D7C"/>
</svg>
