<svg width="81" height="158" viewBox="0 0 81 158" fill="none" xmlns="http://www.w3.org/2000/svg">
<g clip-path="url(#clip0)">
<path d="M25.225 67.3727L25.225 67.3728C23.0851 75.6067 20.6422 83.7721 18.2084 91.9068C17.2284 95.1824 16.2499 98.453 15.2933 101.721C14.8164 103.352 14.3567 104.984 13.8623 106.738C13.7994 106.961 13.736 107.186 13.6718 107.414C15.3681 107.414 16.9037 107.414 18.4368 107.417L18.5029 107.417C19.0525 107.418 19.5866 107.419 20.0182 107.469C20.4601 107.52 21.1222 107.652 21.6442 108.186C22.1597 108.714 22.2828 109.374 22.3311 109.814C22.3792 110.252 22.3792 110.796 22.3791 111.364L22.3791 111.423C22.3791 111.423 22.3791 111.423 22.3791 111.423C22.3797 114.299 22.381 117.176 22.3823 120.053C22.3876 131.786 22.3929 143.524 22.3487 155.259C22.3476 155.571 22.3616 155.781 22.3829 155.923C22.4795 155.933 22.6223 155.938 22.8256 155.928M25.225 67.3727L22.8963 157.426M25.225 67.3727C25.768 65.2827 25.8907 63.1247 25.9109 61.0489C25.9189 60.2275 25.9118 59.4405 25.9048 58.67C25.8934 57.4195 25.8824 56.2128 25.9374 54.9745L25.9915 53.7561M25.225 67.3727L25.9915 53.7561M22.8256 155.928L22.8963 157.426M22.8256 155.928C22.8254 155.928 22.8252 155.928 22.825 155.928L22.8963 157.426M22.8256 155.928C25.9732 155.778 29.1468 155.763 32.3082 155.931C32.6897 155.952 32.9113 155.93 33.0302 155.904M22.8963 157.426C26.0017 157.279 29.1244 157.264 32.2283 157.429C34.1659 157.533 34.6159 156.858 34.6058 154.959M33.0302 155.904C33.0173 155.951 33.0072 155.973 33.0047 155.978C33.0069 155.974 33.0151 155.961 33.0319 155.942C33.0702 155.9 33.1031 155.885 33.103 155.884C33.1029 155.884 33.0895 155.89 33.0558 155.899C33.0478 155.9 33.0393 155.902 33.0302 155.904ZM33.0302 155.904C33.0348 155.888 33.0398 155.867 33.0449 155.844C33.0824 155.67 33.1081 155.397 33.1058 154.967M33.1058 154.967L34.6058 154.959M33.1058 154.967C33.0473 144.308 33.0536 133.648 33.0599 122.993C33.0619 119.673 33.0638 116.353 33.0638 113.034V112.953C33.0638 111.992 33.0637 111.151 33.1356 110.489C33.2079 109.824 33.3791 109.009 33.9956 108.379C34.6189 107.742 35.4326 107.563 36.0963 107.488C36.7486 107.415 37.5763 107.416 38.5121 107.417L38.5946 107.417M33.1058 154.967C33.1058 154.967 33.1058 154.967 33.1058 154.967L34.6058 154.959M34.6058 154.959L38.5946 107.417M38.5946 107.417L38.5939 108.917L38.5955 107.417H38.5946ZM25.9915 53.7561L24.8097 53.4545M25.9915 53.7561L24.8097 53.4545M24.8097 53.4545L24.5298 53.3833L24.2526 53.3128L22.9513 52.9808M24.8097 53.4545L22.9513 52.9808M22.9513 52.9808L22.478 54.2375M22.9513 52.9808L22.478 54.2375M22.478 54.2375C22.4391 54.3408 22.3891 54.4657 22.3334 54.6047C22.1844 54.9766 21.9951 55.4494 21.8698 55.8803M22.478 54.2375L21.8698 55.8803M21.8698 55.8803C20.1351 61.8468 18.4031 67.8168 16.6712 73.7865C15.192 78.885 13.713 83.9832 12.2324 89.0787L12.2323 89.079C11.2111 92.5964 8.43889 94.1181 5.73188 93.3254L5.73171 93.3253C3.92923 92.7977 2.73662 91.8046 2.0958 90.5922C1.45215 89.3745 1.27706 87.7676 1.83334 85.8587L0.393236 85.439L1.83334 85.8587C2.51845 83.5076 3.2026 81.1567 3.88666 78.8061C7.36058 66.8686 10.8321 54.9395 14.4158 43.0439C14.7687 41.8737 15.7323 40.5678 16.7354 39.8795L16.7355 39.8795C24.5176 34.5391 33.1805 32.8553 42.5562 33.8448C47.6417 34.3815 52.3373 36.035 57.006 38.5201C56.9556 38.5622 56.9058 38.6044 56.8565 38.6466L56.856 38.647C54.304 40.8352 53.1107 43.725 52.1379 46.5022L21.8698 55.8803ZM41.9743 60.9664C44.6153 60.0405 46.677 58.6685 47.824 56.4989L47.824 56.4988C49.5083 53.3135 50.9339 49.937 52.1378 46.5024L41.9743 60.9664ZM41.9743 60.9664C35.4659 63.2479 31.8439 70.094 33.142 76.9604L33.1421 76.9608C34.3536 83.3577 40.4955 88.4752 47.1088 87.8645L47.109 87.8645C48.5155 87.7344 49.8616 87.3572 51.1133 86.9397C51.683 86.7497 52.25 86.5454 52.7967 86.3484C52.8513 86.3287 52.9057 86.3091 52.9598 86.2896C53.5637 86.0722 54.1444 85.865 54.7206 85.6796C55.1173 85.552 55.4825 85.386 55.8212 85.2147C57.977 92.5927 60.1092 99.8906 62.3116 107.431C62.1935 107.432 62.0762 107.434 61.9596 107.435C60.3305 107.457 58.8449 107.476 57.3346 107.384C56.4069 107.328 55.259 107.412 54.4587 108.294C53.723 109.104 53.6517 110.214 53.6554 111.05C53.6554 111.05 53.6554 111.05 53.6554 111.05L55.1553 111.044M41.9743 60.9664L53.6632 155.908M55.1553 111.044C55.1839 118.112 55.186 125.18 55.188 132.249C55.1902 139.854 55.1924 147.46 55.2277 155.065C55.2364 156.873 54.782 157.513 52.9573 157.431C49.8505 157.29 46.7306 157.305 43.6238 157.429M55.1553 111.044C55.1481 109.384 55.5706 108.78 57.2434 108.882L55.1553 111.044ZM43.6238 157.429L43.5643 155.931M43.6238 157.429C41.9872 157.494 41.5053 156.994 41.514 155.3L43.5643 155.931M43.6238 157.429L43.564 155.931C43.5641 155.931 43.5642 155.931 43.5643 155.931M43.5643 155.931C46.7058 155.805 49.8687 155.79 53.0249 155.932L53.0252 155.932C53.3536 155.947 53.5518 155.929 53.6632 155.908M53.6632 155.908C53.6499 155.961 53.6391 155.987 53.6362 155.993C53.6388 155.988 53.6485 155.972 53.6685 155.949C53.7088 155.905 53.744 155.888 53.7472 155.886C53.7492 155.885 53.739 155.89 53.7104 155.897C53.6968 155.901 53.6811 155.904 53.6632 155.908ZM43.0505 155.919C43.0052 155.914 42.9701 155.908 42.9436 155.901C42.9226 155.897 42.9136 155.893 42.9136 155.893C42.9135 155.894 42.9624 155.912 43.0204 155.971C43.0676 156.019 43.0838 156.056 43.0838 156.056C43.0839 156.056 43.0768 156.04 43.0669 156C43.0613 155.977 43.0558 155.95 43.0505 155.919ZM13.2481 108.914C13.2309 108.914 13.2137 108.914 13.1965 108.914C12.7093 108.914 12.2079 108.914 11.6889 108.914C11.8341 108.402 11.9752 107.903 12.1133 107.414L13.2481 108.914Z" stroke="#A68D7C" stroke-width="3"/>
<path d="M43.2597 67.6925L43.2596 67.6925C41.9541 68.1485 40.8726 69.2294 40.1899 70.6906C39.5068 72.1528 39.2809 73.8843 39.5986 75.4462L43.2597 67.6925ZM43.2597 67.6925C52.6563 64.4101 56.3828 56.7485 58.5089 48.3455L58.5089 48.3452M43.2597 67.6925L58.5089 48.3452M58.5089 48.3452C59.1528 45.7987 60.5348 43.9739 62.2095 42.9812C63.8681 41.9981 65.9279 41.7597 68.1265 42.5783L68.1267 42.5783M58.5089 48.3452L68.1267 42.5783M68.1267 42.5783C71.0482 43.6657 73.1691 47.0018 72.5696 49.9074L72.5695 49.9078M68.1267 42.5783L72.5695 49.9078M72.5695 49.9078C71.959 52.872 71.0732 55.7331 70.1554 58.698C69.8777 59.5951 69.597 60.5018 69.3201 61.4236M72.5695 49.9078L69.3201 61.4236M69.3201 61.4236C66.111 60.8808 63.174 61.1739 60.6821 62.3135C57.8148 63.6248 55.6831 65.9912 54.4442 69.1488C53.2816 72.1095 53.3442 75.1472 54.5628 78.0518C54.5958 78.1303 54.6196 78.1944 54.6369 78.2459C54.6071 78.2655 54.5713 78.2877 54.5288 78.3125C51.7135 79.9516 49.1546 81.191 46.2262 81.1321C43.0007 81.067 40.2804 78.7927 39.5986 75.4465L69.3201 61.4236ZM42.7651 66.2764C51.4445 63.2446 54.9724 56.2077 57.0547 47.9776C58.509 42.2255 63.442 39.2335 68.6499 41.1725L42.7651 66.2764Z" stroke="#A68D7C" stroke-width="3"/>
<path d="M37.9252 26.7905L37.952 26.7905C44.8301 26.8024 50.2885 21.3002 50.2355 14.3833C50.182 7.4813 44.646 1.86437 38.0811 1.93972L37.9252 26.7905ZM37.9252 26.7905L37.8984 26.7914M37.9252 26.7905L37.8984 26.7914M37.8984 26.7914C32.1048 26.9885 25.8223 22.1435 25.8833 14.3629L25.8833 14.3628M37.8984 26.7914L25.8833 14.3628M25.8833 14.3628C25.9428 6.67851 31.807 2.01256 38.0809 1.93972L25.8833 14.3628Z" stroke="#A68D7C" stroke-width="3"/>
<path d="M70.7155 19.5933L70.7159 19.5933C75.547 19.5732 79.4937 23.5084 79.5011 28.3903V28.3907C79.5098 33.283 75.5002 37.3977 70.8375 37.4501H70.8374C66.0914 37.5037 62.0258 33.4317 62.0195 28.426C62.0133 23.4423 65.8088 19.6123 70.7155 19.5933Z" stroke="#A68D7C" stroke-width="3"/>
<path d="M59.8526 72.7848L59.8526 72.7852C59.91 75.6037 62.0383 77.7264 64.8393 77.7769C67.4768 77.8241 70.0051 75.3286 70.0109 72.3344M59.8526 72.7848L65.2133 67.2934C66.7009 67.3154 67.8787 67.8557 68.6849 68.6965C69.4939 69.54 70.0139 70.7756 70.0109 72.3344M59.8526 72.7848C59.793 69.8937 62.4123 67.2531 65.213 67.2934L59.8526 72.7848ZM70.0109 72.3344L71.5109 72.3372L70.0109 72.3344Z" stroke="#A68D7C" stroke-width="3"/>
</g>
<defs>
<clipPath id="clip0">
<rect width="81" height="157" fill="white" transform="translate(0 0.438232)"/>
</clipPath>
</defs>
</svg>
