<svg width="106" height="107" viewBox="0 0 106 107" fill="none" xmlns="http://www.w3.org/2000/svg">
<g clip-path="url(#clip0)">
<path d="M62.3857 49.5771L62.4997 49.9191H62.8601H82.1503C83.3387 49.9191 84.3003 50.8804 84.3001 52.0694C84.3001 53.2579 83.3385 54.2195 82.1501 54.2195H60.95C60.0256 54.2195 59.2024 53.6272 58.9085 52.75C58.9085 52.7499 58.9085 52.7498 58.9085 52.7498L56.3207 44.9772L55.8099 43.4431L55.3655 44.9977L47.1151 73.8634L47.115 73.8636C46.8513 74.7877 46.0074 75.4212 45.05 75.4212H45.0498H45.0497H45.0495H45.0493H45.0492H45.049H45.0489H45.0487H45.0486H45.0484H45.0483H45.0481H45.048H45.0478H45.0476H45.0475H45.0473H45.0472H45.047H45.0469H45.0467H45.0466H45.0464H45.0463H45.0461H45.0459H45.0458H45.0456H45.0455H45.0453H45.0452H45.045H45.0449H45.0447H45.0446H45.0444H45.0443H45.0441H45.0439H45.0438H45.0436H45.0435H45.0433H45.0432H45.043H45.0429H45.0427H45.0426H45.0424H45.0423H45.0421H45.0419H45.0418H45.0416H45.0415H45.0413H45.0412H45.041H45.0409H45.0407H45.0406H45.0404H45.0403H45.0401H45.04H45.0398H45.0397H45.0395H45.0393H45.0392H45.039H45.0389H45.0387H45.0386H45.0384H45.0383H45.0381H45.038H45.0378H45.0377H45.0375H45.0374H45.0372H45.0371H45.0369H45.0368H45.0366H45.0364H45.0363H45.0361H45.036H45.0358H45.0357H45.0355H45.0354H45.0352H45.0351H45.0349H45.0348H45.0346H45.0345H45.0343H45.0342H45.034H45.0339H45.0337H45.0336H45.0334H45.0333H45.0331H45.033H45.0328H45.0327H45.0325H45.0324H45.0322H45.032H45.0319H45.0317H45.0316H45.0314H45.0313H45.0311H45.031H45.0308H45.0307H45.0305H45.0304H45.0302H45.0301H45.0299H45.0298H45.0296H45.0295H45.0293H45.0292H45.029H45.0289H45.0287H45.0286H45.0284H45.0283H45.0281H45.028H45.0278H45.0277H45.0275H45.0274H45.0272H45.0271H45.0269H45.0268H45.0266H45.0265H45.0263H45.0262H45.026H45.0259H45.0257H45.0256H45.0254H45.0253H45.0251H45.025H45.0248H45.0247H45.0245H45.0244H45.0242H45.0241H45.0239H45.0238H45.0236H45.0234H45.0233H45.0232H45.023H45.0229H45.0227H45.0225H45.0224H45.0222H45.0221H45.0219H45.0218H45.0216H45.0215H45.0213H45.0212H45.021H45.0209H45.0207H45.0206H45.0204H45.0203H45.0201H45.02H45.0198H45.0197H45.0195H45.0194H45.0192H45.0191H45.0189H45.0188H45.0186H45.0185H45.0183H45.0182H45.018H45.0179H45.0177H45.0176H45.0174H45.0173H45.0171H45.017H45.0168H45.0167H45.0165H45.0164H45.0162H45.0161H45.0159H45.0158H45.0156H45.0155H45.0153H45.0152H45.015H45.0149H45.0147H45.0146H45.0144H45.0143H45.0141H45.014H45.0138H45.0137H45.0135H45.0134H45.0132H45.0131H45.0129H45.0128H45.0126H45.0125H45.0123H45.0122H45.0121H45.0119H45.0117H45.0116H45.0115H45.0113H45.0112H45.011H45.0108H45.0107H45.0106H45.0104H45.0103H45.0101H45.01H45.0098H45.0097H45.0095H45.0094H45.0092H45.0091H45.0089H45.0088H45.0086H45.0085H45.0083H45.0082H45.008H45.0079H45.0077H45.0076H45.0074H45.0073H45.0071H45.007H45.0068H45.0067H45.0065H45.0064H45.0062H45.0061H45.0059H45.0058H45.0056H45.0055H45.0053H45.0052H45.005H45.0049H45.0047H45.0046H45.0044H45.0043H45.0041H45.004H45.0038H45.0037H45.0035H45.0034H45.0032H45.0031H45.0029H45.0028H45.0026H45.0025H45.0023H45.0022H45.002H45.0019H45.0017H45.0016H45.0014H45.0013H45.0011H45.001H45.0008H45.0007H45.0005H45.0004H45.0002H45.0001H44.9999H44.9998H44.9996H44.9995H44.9993H44.9991H44.999H44.9989H44.9987H44.9986H44.9984H44.9982H44.9981H44.9979H44.9978H44.9976H44.9975H44.9973H44.9972H44.997H44.9969H44.9967H44.9966H44.9964H44.9963H44.9961H44.996H44.9958H44.9957H44.9955H44.9954H44.9952H44.9951H44.9949H44.9948H44.9946H44.9945H44.9943H44.9942H44.994H44.9939H44.9937H44.9936H44.9934H44.9933H44.9931H44.993H44.9928H44.9927H44.9925H44.9924H44.9922H44.9921H44.9919H44.9918H44.9916H44.9915H44.9913H44.9912H44.991H44.9909H44.9907H44.9906H44.9904H44.9903H44.9901H44.9899H44.9898H44.9896H44.9895H44.9893H44.9892H44.989H44.9889H44.9887H44.9886H44.9884H44.9883H44.9881H44.988H44.9878H44.9877H44.9875H44.9874H44.9872H44.9871H44.9869H44.9868H44.9866H44.9865H44.9863H44.9862H44.986H44.9859H44.9857H44.9855H44.9854H44.9852H44.9851H44.9849H44.9848H44.9846H44.9845H44.9843H44.9842H44.984H44.9839H44.9837H44.9836H44.9834H44.9833H44.9831H44.983H44.9828H44.9826H44.9825H44.9823H44.9822H44.982H44.9819H44.9817H44.9816H44.9814H44.9813H44.9811H44.981H44.9808H44.9807H44.9805H44.9804C43.9992 75.3878 43.1628 74.6959 42.95 73.737L42.95 73.7369L34.2138 34.4107L33.8628 32.8307L33.2615 34.3334L25.845 52.8675L25.8443 52.8694C25.5212 53.6859 24.7279 54.2206 23.8509 54.2193H23.8501H2.65001C1.46161 54.2193 0.5 53.2577 0.5 52.0693C0.5 50.8809 1.46161 49.9193 2.65001 49.9193H22.0539H22.3923L22.5181 49.605L32.4556 24.7709L32.4562 24.7696C32.801 23.9007 33.6798 23.3661 34.6257 23.4284C35.566 23.5056 36.3444 24.1845 36.5508 25.1043L44.884 62.6064L45.8529 62.6353L53.5855 35.5768L53.5859 35.5754C53.8418 34.6702 54.6586 34.0404 55.6053 34.0189L55.6347 34.0182L55.6638 34.0141C56.4968 33.8964 57.3775 34.5452 57.6917 35.488L62.3857 49.5771Z" fill="#A68D7C" stroke="#EBEBEB"/>
<path d="M53.0014 13.3894L52.6667 13.0879C46.7227 7.73383 39.291 4.9519 31.8013 4.9519C23.7894 4.9519 15.7809 8.00702 9.66871 14.1194L53.0014 13.3894ZM53.0014 13.3894L53.3361 13.0879M53.0014 13.3894L53.3361 13.0879M53.3361 13.0879C59.2782 7.73385 66.7117 4.9519 74.2014 4.9519C82.2117 4.9519 90.2219 8.00704 96.3341 14.1192C108.557 26.3438 108.557 46.1603 96.3341 58.3846L53.0014 101.717M53.3361 13.0879L53.0014 101.717M53.0014 101.717L11.8083 60.5243H17.8901L52.6478 95.282L53.0014 95.6356L53.3549 95.282L93.2941 55.343C103.821 44.8163 103.823 27.6862 93.2941 17.1594L92.9405 17.5129L93.294 17.1593C88.1936 12.0606 81.4131 9.25193 74.2014 9.25193C67.6156 9.25193 61.4564 11.6955 56.5471 15.9772L56.5406 15.9828L56.5343 15.9887L53.0014 19.2912L49.4703 15.9904L49.464 15.9845L49.4576 15.9789C44.5482 11.6954 38.3889 9.25358 31.8013 9.25358C24.5897 9.25358 17.8074 12.0622 12.7086 17.161C5.54361 24.3261 3.37307 34.5168 5.95794 43.6242H1.50681C-0.981935 33.3629 1.66476 22.125 9.66868 14.1194L53.0014 101.717Z" fill="#A68D7C" stroke="#EBEBEB"/>
</g>
<defs>
<clipPath id="clip0">
<rect width="106" height="106" fill="white" transform="translate(0 0.438232)"/>
</clipPath>
</defs>
</svg>
