<svg width="122" height="101" viewBox="0 0 122 101" fill="none" xmlns="http://www.w3.org/2000/svg">
<path d="M110.704 10.7227C110.264 10.2823 109.658 10.0325 109.039 10.0325C108.417 10.0325 107.812 10.2823 107.371 10.7227C106.933 11.1605 106.684 11.766 106.684 12.3877C106.684 13.0071 106.933 13.6149 107.371 14.0529C107.812 14.4909 108.417 14.7429 109.039 14.7429C109.658 14.7429 110.264 14.4912 110.704 14.0529C111.142 13.6149 111.392 13.0073 111.392 12.3877C111.392 11.766 111.142 11.1605 110.704 10.7227Z" fill="#A68D7C"/>
<path d="M56.6142 66.1888C56.174 65.7484 55.5686 65.4985 54.949 65.4985C54.3273 65.4985 53.7218 65.7484 53.2814 66.1888C52.8436 66.6266 52.5938 67.232 52.5938 67.8538C52.5938 68.4731 52.8436 69.0807 53.2814 69.519C53.7218 69.957 54.327 70.209 54.949 70.209C55.5683 70.209 56.1738 69.9572 56.6142 69.519C57.0522 69.0809 57.3018 68.4734 57.3018 67.8538C57.3021 67.232 57.0525 66.6266 56.6142 66.1888Z" fill="#A68D7C"/>
<path d="M116.408 18.5442C115.765 17.4134 114.327 17.0182 113.197 17.6611C112.066 18.304 111.671 19.742 112.314 20.8726C119.31 33.1746 117.198 48.7646 107.178 58.7844L105.392 60.5702C104.96 59.4381 104.292 58.3762 103.381 57.4658L79.1825 33.2671C80.765 32.4886 82.2272 31.4498 83.5109 30.1661L88.1521 25.5246C89.0718 24.605 89.0718 23.1136 88.1521 22.194C87.2323 21.2744 85.7413 21.2744 84.8213 22.194L80.18 26.8354C77.9996 29.0157 75.1008 30.2165 72.0174 30.2165H62.7395C62.1149 30.2165 61.5161 30.4647 61.074 30.9063L53.9714 38.0089C51.8623 40.1183 48.4304 40.1183 46.3212 38.0089C44.2119 35.8998 44.2119 32.4679 46.3212 30.3587L62.5367 14.1435C72.4463 4.23368 87.9169 2.05438 100.157 8.8438C101.294 9.47423 102.728 9.06423 103.359 7.92654C103.99 6.78908 103.579 5.35536 102.442 4.72446C95.6905 0.980266 87.7363 -0.518212 80.043 0.506443C72.8433 1.46516 66.2534 4.47978 60.8515 9.26323C54.2154 3.38023 45.7673 0.163086 36.8231 0.163086C27.1333 0.163086 18.0237 3.93648 11.1719 10.7881C4.32004 17.6397 0.546875 26.7499 0.546875 36.4395C0.546875 46.1294 4.32027 55.2389 11.1719 62.0908L12.0595 62.9784C12.214 63.1326 12.3854 63.2588 12.5665 63.3613C12.724 65.3988 13.5777 67.3921 15.1327 68.9468C16.8634 70.6773 19.1355 71.542 21.4083 71.542C21.5263 71.542 21.6445 71.5383 21.7625 71.5336C21.7578 71.6527 21.7538 71.7719 21.7538 71.8917C21.7538 74.2623 22.6769 76.491 24.3532 78.1673C26.0839 79.8978 28.356 80.7628 30.6288 80.7625C30.7468 80.7625 30.865 80.7588 30.983 80.754C30.9782 80.8732 30.9742 80.9924 30.9742 81.1122C30.9742 83.4828 31.8974 85.7115 33.5739 87.3878C35.3044 89.118 37.5769 89.983 39.8495 89.983C39.9689 89.983 40.0883 89.9792 40.2077 89.9745C40.1121 92.3651 40.9733 94.7874 42.7944 96.6088C44.4709 98.285 46.6997 99.2082 49.07 99.2082C51.4407 99.2082 53.6695 98.285 55.3455 96.6088L58.6371 93.317L63.0831 97.7625C64.7594 99.439 66.9881 100.362 69.3587 100.362C71.7292 100.362 73.9579 99.439 75.6342 97.7627C77.4772 95.9197 78.3382 93.4608 78.2181 91.0423C78.366 91.0496 78.5144 91.0538 78.6625 91.0538C80.9353 91.0538 83.2083 90.1888 84.9385 88.4584C86.7587 86.6382 87.6199 84.2178 87.5253 81.8284C87.6444 81.8331 87.7636 81.8371 87.8834 81.8371C90.254 81.8371 92.4827 80.9139 94.159 79.2377C95.9792 77.4175 96.8404 74.997 96.7457 72.6077C96.8649 72.6124 96.9841 72.6164 97.1039 72.6164C99.4744 72.6164 101.703 71.6932 103.379 70.0169C104.231 69.1656 104.872 68.1822 105.304 67.1326C105.533 67.0209 105.749 66.8723 105.939 66.6821L110.507 62.1148C122.023 50.601 124.449 32.6838 116.408 18.5442ZM21.4085 66.8358C20.296 66.8358 19.2502 66.4027 18.4634 65.6159C17.6768 64.8294 17.2435 63.7835 17.2435 62.671C17.2435 61.5588 17.6766 60.5127 18.4634 59.7261L22.522 55.6675C23.3085 54.8807 24.3546 54.4477 25.4671 54.4477C26.5794 54.4477 27.6255 54.8807 28.412 55.6675C30.036 57.2915 30.036 59.9336 28.412 61.5574L24.3534 65.6162C23.5669 66.4025 22.5213 66.8358 21.4085 66.8358ZM27.6846 74.8369C26.8978 74.0503 26.4647 73.0042 26.4647 71.892C26.4647 70.7795 26.8978 69.7336 27.6846 68.9471L31.7434 64.8883C31.7434 64.8883 31.7434 64.8883 31.7434 64.888C32.53 64.1015 33.5758 63.6681 34.6883 63.6681C35.8006 63.6681 36.8466 64.1012 37.6332 64.888C39.2572 66.512 39.2572 69.1541 37.6332 70.7778L33.5746 74.8367C31.9504 76.4604 29.3076 76.4604 27.6846 74.8369ZM36.905 84.0574C36.1182 83.2708 35.6852 82.2247 35.6852 81.1125C35.6852 80 36.1182 78.9541 36.905 78.1676L40.9639 74.1087C40.9639 74.1087 40.9639 74.1087 40.9639 74.1085C41.7504 73.3219 42.7963 72.8886 43.9088 72.8886C45.0213 72.8886 46.0671 73.3217 46.8537 74.1085C48.4777 75.7327 48.4777 78.3748 46.8537 79.9986L42.7949 84.0574C41.1711 85.6814 38.529 85.6814 36.905 84.0574ZM56.0744 89.2195L52.0156 93.2786C51.229 94.0651 50.1832 94.4985 49.0707 94.4985C47.9584 94.4985 46.9123 94.0654 46.1258 93.2786C44.5018 91.6543 44.5018 89.0123 46.1258 87.3885L50.1846 83.3297C50.1846 83.3297 50.1846 83.3297 50.1846 83.3295C50.9711 82.5429 52.017 82.1096 53.1295 82.1096C54.2418 82.1096 55.2878 82.5427 56.0744 83.3295C56.8612 84.116 57.2943 85.1621 57.2943 86.2744C57.2945 87.3873 56.8612 88.433 56.0744 89.2195ZM100.05 66.6863C99.2639 67.4731 98.2178 67.9062 97.1056 67.9062C95.9931 67.9062 94.9472 67.4731 94.1607 66.6863L84.3576 56.8832C84.3571 56.8827 84.3569 56.8825 84.3564 56.882L75.1366 47.6622C74.2167 46.7426 72.7258 46.7426 71.8057 47.6622C70.8861 48.5819 70.8861 50.0733 71.8057 50.9929L90.8298 70.0165C92.4538 71.6407 92.4538 74.2828 90.8298 75.9065C90.0432 76.6933 88.9971 77.1264 87.8849 77.1264C86.7724 77.1264 85.7265 76.6933 84.9399 75.9065L65.9159 56.8827C64.996 55.9633 63.5051 55.9633 62.585 56.8827C61.6654 57.8023 61.6654 59.2938 62.585 60.2136L71.8038 69.4322C71.8045 69.4329 71.8052 69.4339 71.806 69.4346L81.6093 79.2374C83.2333 80.8617 83.2333 83.504 81.6095 85.1277C79.9853 86.7517 77.3428 86.7517 75.7195 85.1277L65.9161 75.3244C65.7348 75.1433 65.5311 74.9992 65.3142 74.8894L62.5181 72.0933C61.5983 71.174 60.1073 71.174 59.1872 72.0933C58.2676 73.013 58.2676 74.5044 59.1872 75.4242L72.305 88.5415C73.929 90.1657 73.929 92.8078 72.305 94.4316C71.5184 95.2184 70.4723 95.6515 69.3601 95.6515C68.2476 95.6515 67.2017 95.2184 66.4151 94.4316L61.4235 89.4402C61.8039 88.4424 62.005 87.3739 62.005 86.2741C62.005 83.9036 61.0818 81.6748 59.4055 79.9986C57.729 78.3223 55.5003 77.3991 53.13 77.3991C53.0101 77.3991 52.8909 77.4031 52.7718 77.4078C52.8662 75.0185 52.0052 72.598 50.1851 70.7778C48.5085 69.1016 46.2798 68.1784 43.9095 68.1784C43.7896 68.1784 43.6705 68.1824 43.5513 68.1871C43.646 65.7978 42.7847 63.3773 40.9646 61.5571C39.2881 59.8808 37.0593 58.9577 34.689 58.9577C34.5691 58.9577 34.45 58.9617 34.3308 58.9664C34.4255 56.577 33.5643 54.1566 31.7441 52.3364C28.2837 48.876 22.6527 48.8762 19.1922 52.3364L15.1337 56.395C14.6217 56.907 14.1877 57.4672 13.8269 58.0602C8.29478 52.1843 5.25826 44.5454 5.25826 36.4391C5.25826 28.0075 8.54158 20.0804 14.5039 14.1185C20.4658 8.15662 28.3932 4.87306 36.8245 4.87306C44.4867 4.87306 51.732 7.58506 57.4646 12.5546L42.9915 27.0276C41.0802 28.9391 40.0275 31.4804 40.0275 34.1835C40.0275 36.8868 41.0802 39.428 42.9915 41.3396C44.9645 43.3123 47.5562 44.2988 50.1476 44.2988C52.739 44.2988 55.3307 43.3126 57.3037 41.3396L63.7168 34.9265H72.0188C72.7044 34.9265 73.3824 34.8796 74.0521 34.7965L100.052 60.7958C101.674 62.4205 101.674 65.0628 100.05 66.6863Z" fill="#A68D7C"/>
</svg>
