<svg width="19" height="15" viewBox="0 0 19 15" fill="none" xmlns="http://www.w3.org/2000/svg">
<path d="M5.81267 0.868309L8.05267 2.78831C6.81534 3.98298 5.962 5.11364 5.49267 6.18031C5.02334 7.20431 4.746 8.24965 4.66067 9.31631L3.18867 8.22831H7.92467L7.34867 14.8843H0.756671L1.14067 10.2123C1.26867 8.46298 1.674 6.84164 2.35667 5.34831C3.082 3.81231 4.234 2.31898 5.81267 0.868309ZM16.5647 0.868309L18.8047 2.78831C17.5673 3.98298 16.714 5.11364 16.2447 6.18031C15.7753 7.20431 15.498 8.24965 15.4127 9.31631L13.9407 8.22831H18.6767L18.1007 14.8843H11.5087L11.8927 10.2123C12.0207 8.46298 12.426 6.84164 13.1087 5.34831C13.834 3.81231 14.986 2.31898 16.5647 0.868309Z" fill="#A68D7C"/>
</svg>
