<svg width="122" height="123" viewBox="0 0 122 123" fill="none" xmlns="http://www.w3.org/2000/svg">
<g clip-path="url(#clip0)">
<path d="M110.884 2.60083C110.722 2.00365 110.321 1.50119 109.777 1.21517C108.702 0.641901 107.37 1.05545 106.801 2.13884C106.8 2.1416 106.798 2.14436 106.797 2.14712C106.797 2.20843 95.6447 24.0233 61.4089 27.8247C56.943 28.3051 52.5778 29.4798 48.4686 31.3072C41.1133 34.5313 35.0387 40.1426 31.2108 47.2484C27.637 53.9232 26.1569 61.5345 26.9663 69.0755C27.5625 74.5728 29.3834 79.8631 32.2932 84.5508C26.2122 88.953 6.92339 104.171 5.18423 120.504C5.05653 121.723 5.9334 122.816 7.1423 122.944C8.3515 123.073 9.43483 122.189 9.56253 120.97C11.1557 106.39 29.2527 92.2516 34.8958 88.1559C41.67 96.5434 51.8131 101.277 62.698 102.049C70.0241 102.526 77.3589 101.266 84.1152 98.3705C91.4495 95.2678 97.9269 90.4159 102.991 84.2319C116.04 68.2908 122.255 41.4973 110.884 2.60083ZM36.1607 82.3558C35.3215 81.0232 34.5818 79.6295 33.9472 78.1865C32.6118 75.1415 31.7505 71.9073 31.3932 68.5973C30.6483 61.9557 31.9204 55.2423 35.0418 49.3453C38.4155 43.0933 43.7671 38.1595 50.2442 35.3293C53.9472 33.7036 57.8773 32.6656 61.8953 32.2514C84.4922 29.7989 97.7852 19.6579 104.645 12.3004C100.614 25.6784 93.6757 37.982 84.3341 48.3152L82.9963 34.7284C82.9282 33.5046 81.889 32.5681 80.6752 32.6368C79.4614 32.7054 78.5326 33.7533 78.6007 34.9771C78.604 35.0374 78.6098 35.0978 78.618 35.1576L80.3328 52.6193C70.1046 63.0792 55.8873 73.5881 36.1607 82.3558ZM99.5852 81.3871V81.3993C94.9843 87.0471 89.091 91.4827 82.4125 94.3239C76.271 96.9407 69.6054 98.0664 62.9534 97.6103C53.693 97.1373 45.003 92.957 38.812 85.9977C46.0672 82.7608 53.0822 79.0029 59.8035 74.7531L79.1288 78.4318C80.3298 78.6216 81.456 77.7935 81.6442 76.5826C81.8257 75.4146 81.0671 74.3079 79.9193 74.0664L65.0696 71.2337C71.9262 66.4857 78.3088 61.0771 84.1274 55.0841C84.2341 54.9915 84.3317 54.8888 84.4192 54.7775C99.7676 38.6647 106.299 22.7235 109.023 12.9135C116.539 45.2374 110.786 67.7267 99.5852 81.3871Z" fill="#A68D7C"/>
</g>
<defs>
<clipPath id="clip0">
<rect width="121" height="122" fill="white" transform="translate(0.5 0.957031)"/>
</clipPath>
</defs>
</svg>
