<svg width="134" height="135" viewBox="0 0 134 135" fill="none" xmlns="http://www.w3.org/2000/svg">
<g clip-path="url(#clip0)">
<path d="M113.856 45.2162C113.855 45.2162 113.853 45.2162 113.852 45.2162H1.91854C0.86021 45.2151 0.00112043 46.0719 1.09542e-06 47.1302C1.09542e-06 47.1316 1.09542e-06 47.1333 1.09542e-06 47.1347V100.863C-0.00111824 101.921 0.855732 102.78 1.91406 102.781C1.91546 102.781 1.91714 102.781 1.91854 102.781H78.0333C79.0927 102.781 79.9518 101.922 79.9518 100.863C79.9518 99.8033 79.0927 98.9442 78.0333 98.9442H3.83708V49.0533H111.933V53.8507C111.932 54.9091 112.789 55.7682 113.848 55.7693C113.849 55.7693 113.851 55.7693 113.852 55.7693C114.91 55.7704 115.769 54.9135 115.771 53.8552C115.771 53.8538 115.771 53.8521 115.771 53.8507V47.1347C115.772 46.0764 114.915 45.2176 113.856 45.2162Z" fill="#A68D7C" stroke="#F3F3F3" stroke-width="0.5"/>
<path d="M100.838 36.3088L11.2908 16.1608C10.7938 16.0497 10.273 16.1398 9.84235 16.4115C9.41224 16.6855 9.10806 17.1184 8.99613 17.6159L4.51879 37.7639C4.28877 38.7988 4.94134 39.8241 5.97616 40.0541C7.01099 40.2841 8.0363 39.6316 8.26632 38.5967L12.325 20.327L99.9958 40.0519C100.135 40.084 100.276 40.1 100.419 40.0989C101.478 40.0969 102.336 39.2364 102.334 38.177C102.332 37.2812 101.711 36.5061 100.838 36.3088Z" fill="#A68D7C" stroke="#F3F3F3" stroke-width="0.5"/>
<path d="M89.9664 25.2069L36.2383 2.8202C35.3045 2.43096 34.2286 2.83084 33.7758 3.73582L29.2985 12.6905C28.7928 13.6257 29.1409 14.794 30.0764 15.2997C31.0116 15.8053 32.1799 15.4572 32.6856 14.5217C32.7054 14.4851 32.7242 14.4476 32.7415 14.4095V14.414L36.4152 7.0622L88.4844 28.7571C89.4649 29.1663 90.5915 28.7034 91.0007 27.7229C91.4098 26.7429 90.9469 25.6163 89.9664 25.2069Z" fill="#A68D7C" stroke="#F3F3F3" stroke-width="0.5"/>
<path d="M91.3236 54.1709H73.5553C72.4958 54.1709 71.6367 55.03 71.6367 56.0894C71.6367 57.1489 72.4958 58.008 73.5553 58.008H91.3236C92.383 58.008 93.2421 57.1489 93.2421 56.0894C93.2421 55.03 92.383 54.1709 91.3236 54.1709Z" fill="#A68D7C" stroke="#F3F3F3" stroke-width="0.5"/>
<path d="M55.6456 54.2987C44.7654 54.2987 35.9453 63.1188 35.9453 73.999C35.9565 84.8744 44.7701 93.6881 55.6456 93.6993C66.5258 93.6993 75.3459 84.8792 75.3459 73.999C75.3459 63.1188 66.5258 54.2987 55.6456 54.2987ZM55.6456 90.1174C46.7435 90.1174 39.5272 82.901 39.5272 73.999C39.537 65.1011 46.7477 57.8904 55.6456 57.8806C64.5477 57.8806 71.764 65.0969 71.764 73.999C71.764 82.901 64.5477 90.1174 55.6456 90.1174Z" fill="#A68D7C" stroke="#F3F3F3" stroke-width="0.5"/>
<path d="M37.7379 89.9874H20.8158L12.7924 81.2118V66.6604L21.6531 58.008H37.7379C38.7974 58.008 39.6565 57.1489 39.6565 56.0894C39.6565 55.03 38.7974 54.1709 37.7379 54.1709H20.874C20.3726 54.1698 19.8904 54.3651 19.5308 54.7149L9.5307 64.4688C9.15713 64.9053 8.95229 65.4614 8.95313 66.0359V81.9573C8.95313 82.4361 9.13194 82.8975 9.45459 83.2512L18.5503 93.1999C18.9138 93.5978 19.4281 93.8247 19.9674 93.8245H37.7379C38.7974 93.8245 39.6565 92.9654 39.6565 91.9059C39.6565 90.8465 38.7977 89.9874 37.7379 89.9874Z" fill="#A68D7C" stroke="#F3F3F3" stroke-width="0.5"/>
<path d="M56.765 71.7601H54.5264C53.8301 71.7601 53.407 71.3706 53.407 71.2005C53.407 71.0303 53.8301 70.6408 54.5264 70.6408H60.123C61.3593 70.6408 62.3617 69.6384 62.3617 68.4021C62.3617 67.1658 61.3593 66.1635 60.123 66.1635H57.8844C57.8844 64.9272 56.882 63.9248 55.6457 63.9248C54.4094 63.9248 53.407 64.9272 53.407 66.1635V66.2642C50.9241 66.6148 49.043 68.6842 48.9297 71.1893C49.09 74.1244 51.5901 76.3796 54.5264 76.2375H56.765C57.4613 76.2375 57.8844 76.627 57.8844 76.7971C57.8844 76.9673 57.4613 77.3568 56.765 77.3568H51.1684C49.9321 77.3568 48.9297 78.3592 48.9297 79.5955C48.9297 80.8318 49.9321 81.8341 51.1684 81.8341H53.407C53.407 83.0704 54.4094 84.0728 55.6457 84.0728C56.882 84.0728 57.8844 83.0704 57.8844 81.8341V81.7334C60.3673 81.3828 62.2484 79.3134 62.3617 76.8083C62.2014 73.8732 59.7013 71.618 56.765 71.7601Z" fill="#A68D7C" stroke="#F3F3F3" stroke-width="0.5"/>
</g>
<defs>
<clipPath id="clip0">
<rect width="134" height="134" fill="white" transform="translate(0 0.438232)"/>
</clipPath>
</defs>
</svg>
