<svg width="122" height="125" viewBox="0 0 122 125" fill="none" xmlns="http://www.w3.org/2000/svg">
<g clip-path="url(#clip0)">
<path d="M110.064 85.703C115.367 81.2702 117.402 73.9382 115.136 67.3303C112.838 60.6287 106.619 56.1364 99.6333 56.1364C92.6475 56.1364 86.4285 60.6287 84.1308 67.3303C81.8651 73.9382 83.8999 81.2702 89.203 85.703C82.0865 87.6845 77.1301 94.2561 77.1167 101.776V101.776V102.881C75.2688 100.839 72.9489 99.2967 70.3662 98.394C74.8899 94.4505 76.5575 88.0684 74.5341 82.3531C72.481 76.5534 67.0676 72.6844 61 72.6844C54.9324 72.6844 49.519 76.5534 47.4659 82.3531C45.4425 88.0684 47.1101 94.4505 51.6338 98.394C49.0511 99.2967 46.7312 100.839 44.8833 102.881V101.776V101.776C44.8699 94.2561 39.9135 87.6845 32.797 85.703C38.1001 81.2702 40.1349 73.9382 37.8692 67.3303C35.5715 60.6287 29.3525 56.1364 22.3667 56.1364C15.3808 56.1364 9.16187 60.6287 6.86412 67.3303C4.59847 73.9382 6.63324 81.2702 11.9363 85.703C4.81981 87.6845 -0.136521 94.2561 -0.15 101.776V101.776V120.376C-0.15 122.74 1.73558 124.66 4.06667 124.66H117.933C120.264 124.66 122.15 122.74 122.15 120.376V101.776V101.776C122.137 94.2561 117.18 87.6845 110.064 85.703ZM59.1324 111.184L59.1324 111.184C59.5267 111.85 60.2367 112.259 61.0041 112.259C61.7714 112.259 62.4814 111.85 62.8757 111.184L62.8758 111.184L68.1049 102.334C73.4001 103.74 77.1077 108.601 77.1167 114.177V120.226H44.8833V114.177C44.8932 108.598 48.6048 103.737 53.9032 102.334L59.1324 111.184ZM81.4833 101.777C81.4919 96.7309 84.5389 92.2159 89.1441 90.3825C89.0068 94.0992 90.0998 97.7583 92.2523 100.772L92.2518 100.773L92.2599 100.782C93.5987 102.361 95.4325 103.42 97.45 103.781V105.91C97.45 107.132 98.4252 108.126 99.6333 108.126C100.841 108.126 101.817 107.132 101.817 105.91V103.781C103.834 103.42 105.668 102.361 107.007 100.782L107.007 100.783L107.014 100.772C109.167 97.7583 110.26 94.0992 110.123 90.3825C114.728 92.2159 117.775 96.7309 117.783 101.777V120.226H81.4833V101.777ZM103.71 97.8758C101.441 100.117 97.83 100.117 95.5608 97.8757C94.6614 96.8216 94.131 95.3388 93.8373 93.7913C93.5547 92.3025 93.4938 90.7681 93.5265 89.5285H93.5268H93.5271H93.5274H93.5277H93.528H93.5283H93.5286H93.5289H93.5292H93.5295H93.5298H93.5301H93.5304H93.5307H93.531H93.5312H93.5315H93.5318H93.5321H93.5324H93.5327H93.533H93.5333H105.733H105.734H105.734H105.734H105.735H105.735H105.735H105.735H105.736H105.736H105.736H105.737H105.737H105.737H105.738H105.738H105.738H105.739H105.739H105.739H105.74H105.74H105.74H105.74H105.741H105.741H105.741H105.742H105.742H105.742H105.743H105.743H105.743H105.744H105.744H105.744H105.744C105.778 90.7669 105.719 92.2979 105.437 93.7851C105.143 95.3309 104.612 96.8143 103.71 97.8758ZM87.5833 72.8429C87.5834 66.0752 92.9806 60.5931 99.6333 60.5931C106.286 60.5931 111.683 66.0753 111.683 72.8431C111.683 79.6108 106.286 85.093 99.6335 85.0931C92.9834 85.0863 87.59 79.608 87.5833 72.8429ZM58.7536 101.926H63.2464L61 105.73L58.7536 101.926ZM50.9833 87.3096C50.9834 81.6833 55.4703 77.1264 61 77.1264C66.5298 77.1264 71.0167 81.6834 71.0167 87.3098C71.0167 92.9361 66.5299 97.493 61.0002 97.4931C55.4731 97.4864 50.99 92.9333 50.9833 87.3096ZM40.5167 101.777V120.226H24.55V98.2565L29.6635 89.5929C35.8122 90.2218 40.5081 95.48 40.5167 101.777ZM20.1203 89.5264H24.613L22.3667 93.3305L20.1203 89.5264ZM10.3167 72.8429C10.3167 66.0752 15.714 60.5931 22.3667 60.5931C29.0194 60.5931 34.4167 66.0753 34.4167 72.8431C34.4167 79.6108 29.0195 85.093 22.3668 85.0931C15.7167 85.0863 10.3233 79.608 10.3167 72.8429ZM4.21667 101.777C4.22523 95.48 8.92117 90.2218 15.0698 89.5929L20.1833 98.2565V120.226H4.21667V101.777Z" fill="#A68D7C" stroke="#A68D7C" stroke-width="0.3"/>
<path d="M0.019726 51.8974C-0.101777 52.7795 0.346442 53.6415 1.13196 54.0364C1.91374 54.43 2.85544 54.2729 3.47233 53.6458C3.91153 53.1974 14.3303 42.8062 22.9639 51.5792L58.9681 4.6989C6.84156 5.8831 0.0827593 51.4304 0.019726 51.8974ZM0.019726 51.8974L-0.128926 51.8774C-0.0957645 51.6317 1.61473 40.1012 9.8477 28.4804C18.0704 16.874 32.7943 5.18607 58.8181 4.55239L1.06459 54.1705C0.220742 53.7462 -0.258977 52.8215 -0.128871 51.877L0.019726 51.8974ZM46.7609 45.5473C40.951 41.5333 33.3636 41.3559 27.3801 45.0881C29.2842 36.2382 35.4745 18.4259 55.209 10.8234C52.0195 16.2923 50.0145 23.032 48.7534 29.3712C47.493 35.7072 46.9739 41.6526 46.7609 45.5473ZM46.2393 10.2809C29.257 20.4254 24.2191 38.1018 22.7731 45.9801C20.5207 44.5444 17.9134 43.7831 15.2512 43.7866V43.7866L15.2469 43.7867C11.8176 43.8904 8.47553 44.8945 5.5448 46.6979C8.62786 36.4242 18.2343 15.749 46.2393 10.2809ZM62.8848 62.5098C62.8848 63.5706 62.0393 64.4264 61.0014 64.4264C59.9636 64.4264 59.1181 63.5706 59.1181 62.5098V46.2232C59.7439 46.1602 60.3724 46.1279 61.0014 46.1264C61.6303 46.1282 62.2588 46.1599 62.8848 46.2215V62.5098ZM61.0014 41.693C57.5807 41.5517 54.1945 42.4143 51.2464 44.1746C51.5535 39.8096 52.2263 33.569 53.6925 27.2904C55.1758 20.9387 57.4675 14.5644 61.0014 10.0518C64.5313 14.5593 66.8215 20.9305 68.3047 27.2809C69.771 33.5583 70.4452 39.7995 70.7543 44.1665C67.8062 42.409 64.4207 41.5491 61.0014 41.693ZM94.6824 45.1194C88.6896 41.3489 81.0681 41.5107 75.2338 45.5391C75.0208 41.6434 74.5012 35.6948 73.2398 29.356C71.9776 23.0133 69.9708 16.2702 66.7786 10.8009C86.8047 18.4378 92.8743 36.262 94.6824 45.1194ZM75.7623 10.2811C103.779 15.7514 113.382 36.4399 116.462 46.7035C111.695 43.8924 105.235 42.2132 99.2283 45.9819C97.7921 38.1118 92.7413 20.4169 75.7623 10.2811Z" fill="#A68D7C" stroke="#A68D7C" stroke-width="0.3"/>
</g>
<defs>
<clipPath id="clip0">
<rect width="122" height="124" fill="white" transform="translate(0 0.509766)"/>
</clipPath>
</defs>
</svg>
