<svg width="119" height="109" viewBox="0 0 119 109" fill="none" xmlns="http://www.w3.org/2000/svg">
<path d="M109.147 72.1408L109.147 72.1408C109.927 71.3545 111.196 71.3491 111.983 72.1291L117.608 77.7088C118.395 78.4886 118.4 79.7582 117.62 80.5444L117.62 80.5445C117.228 80.9399 116.712 81.1377 116.196 81.1377C115.685 81.1377 115.175 80.9441 114.784 80.5562L114.784 80.5561L109.159 74.9765L109.159 74.9765C108.373 74.1966 108.367 72.927 109.147 72.1408Z" fill="#A68D7C" stroke="#F3F3F3" stroke-width="0.6"/>
<path d="M103.412 69.2573L103.412 69.2574C103.803 69.6483 104.315 69.8438 104.828 69.8438C105.343 69.8438 105.857 69.6475 106.249 69.2555C107.032 68.4724 107.032 67.2028 106.249 66.4195C106.249 66.4195 106.249 66.4195 106.249 66.4195M103.412 69.2573L106.249 66.4195M103.412 69.2573C102.628 68.4739 102.627 67.2061 103.41 66.4234L103.412 69.2573ZM106.249 66.4195C105.466 65.6365 104.197 65.6364 103.414 66.4195M106.249 66.4195L103.414 66.4195M103.414 66.4195C103.414 66.4195 103.414 66.4196 103.414 66.4196L103.41 66.4234L103.414 66.4195Z" fill="#A68D7C" stroke="#F3F3F3" stroke-width="0.6"/>
<mask id="path-3-inside-1" fill="white">
<path d="M86.8091 76.8361L109.171 54.4745C112.558 51.0875 112.558 45.5765 109.171 42.1895C107.976 40.9953 106.518 40.2241 104.982 39.8722C105.508 38.7397 105.787 37.4967 105.787 36.2105C105.787 33.8901 104.884 31.7088 103.243 30.0683C101.956 28.7813 100.336 27.9503 98.5782 27.6509C99.568 24.635 98.8683 21.1809 96.4744 18.7873C95.1582 17.4713 93.5212 16.6693 91.8128 16.3761C92.099 15.5075 92.25 14.5902 92.25 13.649C92.25 11.3286 91.3463 9.14725 89.7058 7.50677C88.0651 5.86629 85.8837 4.96263 83.5636 4.96263C82.0902 4.96263 80.6735 5.32815 79.4149 6.01449L79.1925 5.77549C76.302 2.66923 72.2105 0.887939 67.9678 0.887939H49.8668C48.5939 0.887939 47.5616 1.92021 47.5616 3.19309V6.21592C47.5616 7.42565 47.7663 8.60334 48.1576 9.71074C47.115 9.27769 45.9868 9.05022 44.8239 9.05022C42.5035 9.05022 40.3221 9.95389 38.6814 11.5944C36.2864 13.9894 35.5874 17.446 36.5795 20.4628C34.8697 20.7553 33.2304 21.5578 31.913 22.8749C30.2725 24.5156 29.3689 26.697 29.3689 29.0171C29.3689 29.9565 29.5194 30.8724 29.8045 31.7392C28.0483 32.0395 26.4299 32.8701 25.1444 34.1559C22.4993 36.801 21.9201 40.742 23.4069 43.9545C21.8325 44.3142 20.3866 45.1071 19.2163 46.2771C15.8295 49.6639 15.8295 55.1749 19.2163 58.5618L23.815 63.1604L1.17516 85.7998C0.274947 86.7 0.274947 88.1595 1.17516 89.06C1.62526 89.5098 2.21526 89.7352 2.80503 89.7352C3.3948 89.7352 3.9848 89.5101 4.43491 89.06L27.2933 66.2016C28.5873 66.94 30.0559 67.3351 31.5864 67.3351C33.9066 67.3351 36.0879 66.4314 37.7287 64.7907C39.5111 63.0085 40.3542 60.6376 40.2604 58.2979C40.3772 58.3028 40.494 58.3062 40.6109 58.3062C42.8349 58.306 45.0601 57.4593 46.7531 55.7662C48.3936 54.1255 49.2973 51.9441 49.2973 49.624C49.2973 49.5067 49.2933 49.3901 49.2887 49.2735C49.4042 49.2781 49.5197 49.2818 49.6354 49.2818C51.8596 49.2818 54.0843 48.435 55.7776 46.7418C57.4181 45.1011 58.3217 42.9197 58.3217 40.5995C58.3217 40.4822 58.3178 40.3656 58.3132 40.249C58.4287 40.2536 58.5441 40.2573 58.6598 40.2573C60.8843 40.2573 63.1088 39.4106 64.802 37.7173C67.9844 34.535 68.1759 29.4778 65.3782 26.069L80.68 10.7672C81.45 9.99699 82.4732 9.57315 83.5622 9.57315C84.6512 9.57315 85.6747 9.99699 86.4447 10.7672C87.2147 11.5372 87.6385 12.5605 87.6385 13.6495C87.6385 14.7382 87.2147 15.7619 86.4445 16.5317L84.1884 18.7878L76.0026 26.9735C75.1024 27.8738 75.1024 29.3333 76.0026 30.2338C76.4527 30.6836 77.0427 30.909 77.6325 30.909C78.2222 30.909 78.8122 30.6839 79.2624 30.2338L87.4481 22.048C89.0372 20.4587 91.6233 20.4584 93.2129 22.0477C94.8022 23.6373 94.8022 26.2231 93.2129 27.8127L90.9566 30.069L85.0271 35.9985C84.1269 36.8987 84.1269 38.3582 85.0271 39.2587C85.4772 39.7086 86.0672 39.934 86.6569 39.934C87.2467 39.934 87.8367 39.7088 88.2868 39.2587L94.2163 33.3292C94.9863 32.559 96.0098 32.1351 97.0986 32.1351C98.1875 32.1351 99.211 32.559 99.981 33.3292C100.751 34.0992 101.175 35.1225 101.175 36.2114C101.175 37.3002 100.751 38.3239 99.9808 39.0937L96.884 42.1905L94.0513 45.0232C93.1511 45.9234 93.1511 47.3829 94.0513 48.2834C94.5014 48.7332 95.0914 48.9586 95.6812 48.9586C96.271 48.9586 96.8609 48.7335 97.3111 48.2834L100.146 45.4486C101.735 43.8618 104.32 43.8621 105.908 45.4507C107.498 47.04 107.498 49.6261 105.908 51.2156L83.5465 73.5773C77.9314 79.1927 70.4686 82.4434 62.5329 82.7315C61.9495 82.7527 61.3955 82.9945 60.9834 83.4084L40.326 104.142C39.4274 105.044 39.43 106.504 40.332 107.402C40.7817 107.85 41.3703 108.075 41.9589 108.075C42.5501 108.075 43.1417 107.848 43.5918 107.396L58.7859 92.1462C62.6453 94.6221 67.1842 95.7993 71.7993 95.4942L83.691 107.386C84.1411 107.836 84.7311 108.061 85.3209 108.061C85.9109 108.061 86.5007 107.836 86.9508 107.386C87.851 106.486 87.851 105.026 86.9508 104.126L74.3073 91.481C73.8286 91.0026 73.1635 90.7581 72.4889 90.8134L71.7581 90.8733C68.3847 91.1499 65.0503 90.411 62.139 88.7795L63.6204 87.2927C72.3819 86.7523 80.5848 83.0606 86.8091 76.8361ZM34.4689 61.5309C33.6989 62.3012 32.6752 62.725 31.5867 62.725C30.4977 62.725 29.4742 62.3012 28.7044 61.5309L22.4758 55.3025C20.8865 53.7132 20.8865 51.1271 22.4758 49.5376C23.2458 48.7674 24.2695 48.3435 25.3582 48.3435C26.447 48.3435 27.4707 48.7674 28.2405 49.5376L34.4691 55.766C36.0582 57.3553 36.0582 59.9414 34.4689 61.5309ZM43.4938 52.506C41.9043 54.0953 39.3177 54.0953 37.7289 52.506L31.5002 46.2774L28.4032 43.1803C26.8139 41.591 26.8139 39.0049 28.4032 37.4156C29.1732 36.6454 30.1969 36.2216 31.2854 36.2216C32.3744 36.2216 33.3979 36.6454 34.1677 37.4156L43.4931 46.7411C43.4931 46.7411 43.4931 46.7411 43.4934 46.7411C44.2636 47.5113 44.6874 48.5348 44.6874 49.6236C44.6874 50.7123 44.2636 51.736 43.4938 52.506ZM52.5183 43.4813C50.9288 45.0704 48.3424 45.0706 46.7534 43.4813L35.1716 31.8996C34.4016 31.1296 33.9778 30.1063 33.9778 29.0173C33.9778 27.9286 34.4016 26.9049 35.1718 26.1351C35.9665 25.3404 37.0105 24.9431 38.0541 24.9431C39.0972 24.9431 40.1401 25.34 40.9345 26.1333L46.2131 31.4119L52.5178 37.7166H52.5181C53.2878 38.4866 53.7117 39.5099 53.7117 40.5989C53.7121 41.6878 53.2883 42.7116 52.5183 43.4813ZM61.543 34.4566C59.9537 36.0459 57.3676 36.0459 55.7783 34.4566L44.1965 22.8749C44.1954 22.8737 44.194 22.8726 44.1926 22.8712L41.9402 20.6188C40.3509 19.0293 40.3509 16.4434 41.9402 14.8539C42.7349 14.059 43.7789 13.6617 44.8227 13.6617C45.8665 13.6617 46.9105 14.059 47.705 14.8539L61.5425 28.6915C62.3128 29.4615 62.7366 30.485 62.7366 31.5737C62.7368 32.6629 62.3132 33.6869 61.543 34.4566ZM62.1491 22.7783L55.8177 16.4469C56.5356 16.6001 57.2738 16.6815 58.0251 16.6813C58.0419 16.6813 58.059 16.6813 58.0761 16.6813L64.402 16.6515C65.6748 16.6455 66.7023 15.6087 66.6963 14.3356C66.6903 13.0661 65.6594 12.0412 64.3914 12.0412C64.3877 12.0412 64.384 12.0412 64.3803 12.0412L58.0544 12.071C58.0447 12.071 58.0355 12.071 58.0258 12.071C56.4672 12.071 55.0011 11.466 53.8958 10.366C52.7836 9.25879 52.1712 7.78518 52.1712 6.21568V5.49801H67.9671C70.9344 5.49801 73.7956 6.74369 75.8173 8.91609L75.9111 9.0168L62.1491 22.7783Z"/>
</mask>
<path d="M86.8091 76.8361L109.171 54.4745C112.558 51.0875 112.558 45.5765 109.171 42.1895C107.976 40.9953 106.518 40.2241 104.982 39.8722C105.508 38.7397 105.787 37.4967 105.787 36.2105C105.787 33.8901 104.884 31.7088 103.243 30.0683C101.956 28.7813 100.336 27.9503 98.5782 27.6509C99.568 24.635 98.8683 21.1809 96.4744 18.7873C95.1582 17.4713 93.5212 16.6693 91.8128 16.3761C92.099 15.5075 92.25 14.5902 92.25 13.649C92.25 11.3286 91.3463 9.14725 89.7058 7.50677C88.0651 5.86629 85.8837 4.96263 83.5636 4.96263C82.0902 4.96263 80.6735 5.32815 79.4149 6.01449L79.1925 5.77549C76.302 2.66923 72.2105 0.887939 67.9678 0.887939H49.8668C48.5939 0.887939 47.5616 1.92021 47.5616 3.19309V6.21592C47.5616 7.42565 47.7663 8.60334 48.1576 9.71074C47.115 9.27769 45.9868 9.05022 44.8239 9.05022C42.5035 9.05022 40.3221 9.95389 38.6814 11.5944C36.2864 13.9894 35.5874 17.446 36.5795 20.4628C34.8697 20.7553 33.2304 21.5578 31.913 22.8749C30.2725 24.5156 29.3689 26.697 29.3689 29.0171C29.3689 29.9565 29.5194 30.8724 29.8045 31.7392C28.0483 32.0395 26.4299 32.8701 25.1444 34.1559C22.4993 36.801 21.9201 40.742 23.4069 43.9545C21.8325 44.3142 20.3866 45.1071 19.2163 46.2771C15.8295 49.6639 15.8295 55.1749 19.2163 58.5618L23.815 63.1604L1.17516 85.7998C0.274947 86.7 0.274947 88.1595 1.17516 89.06C1.62526 89.5098 2.21526 89.7352 2.80503 89.7352C3.3948 89.7352 3.9848 89.5101 4.43491 89.06L27.2933 66.2016C28.5873 66.94 30.0559 67.3351 31.5864 67.3351C33.9066 67.3351 36.0879 66.4314 37.7287 64.7907C39.5111 63.0085 40.3542 60.6376 40.2604 58.2979C40.3772 58.3028 40.494 58.3062 40.6109 58.3062C42.8349 58.306 45.0601 57.4593 46.7531 55.7662C48.3936 54.1255 49.2973 51.9441 49.2973 49.624C49.2973 49.5067 49.2933 49.3901 49.2887 49.2735C49.4042 49.2781 49.5197 49.2818 49.6354 49.2818C51.8596 49.2818 54.0843 48.435 55.7776 46.7418C57.4181 45.1011 58.3217 42.9197 58.3217 40.5995C58.3217 40.4822 58.3178 40.3656 58.3132 40.249C58.4287 40.2536 58.5441 40.2573 58.6598 40.2573C60.8843 40.2573 63.1088 39.4106 64.802 37.7173C67.9844 34.535 68.1759 29.4778 65.3782 26.069L80.68 10.7672C81.45 9.99699 82.4732 9.57315 83.5622 9.57315C84.6512 9.57315 85.6747 9.99699 86.4447 10.7672C87.2147 11.5372 87.6385 12.5605 87.6385 13.6495C87.6385 14.7382 87.2147 15.7619 86.4445 16.5317L84.1884 18.7878L76.0026 26.9735C75.1024 27.8738 75.1024 29.3333 76.0026 30.2338C76.4527 30.6836 77.0427 30.909 77.6325 30.909C78.2222 30.909 78.8122 30.6839 79.2624 30.2338L87.4481 22.048C89.0372 20.4587 91.6233 20.4584 93.2129 22.0477C94.8022 23.6373 94.8022 26.2231 93.2129 27.8127L90.9566 30.069L85.0271 35.9985C84.1269 36.8987 84.1269 38.3582 85.0271 39.2587C85.4772 39.7086 86.0672 39.934 86.6569 39.934C87.2467 39.934 87.8367 39.7088 88.2868 39.2587L94.2163 33.3292C94.9863 32.559 96.0098 32.1351 97.0986 32.1351C98.1875 32.1351 99.211 32.559 99.981 33.3292C100.751 34.0992 101.175 35.1225 101.175 36.2114C101.175 37.3002 100.751 38.3239 99.9808 39.0937L96.884 42.1905L94.0513 45.0232C93.1511 45.9234 93.1511 47.3829 94.0513 48.2834C94.5014 48.7332 95.0914 48.9586 95.6812 48.9586C96.271 48.9586 96.8609 48.7335 97.3111 48.2834L100.146 45.4486C101.735 43.8618 104.32 43.8621 105.908 45.4507C107.498 47.04 107.498 49.6261 105.908 51.2156L83.5465 73.5773C77.9314 79.1927 70.4686 82.4434 62.5329 82.7315C61.9495 82.7527 61.3955 82.9945 60.9834 83.4084L40.326 104.142C39.4274 105.044 39.43 106.504 40.332 107.402C40.7817 107.85 41.3703 108.075 41.9589 108.075C42.5501 108.075 43.1417 107.848 43.5918 107.396L58.7859 92.1462C62.6453 94.6221 67.1842 95.7993 71.7993 95.4942L83.691 107.386C84.1411 107.836 84.7311 108.061 85.3209 108.061C85.9109 108.061 86.5007 107.836 86.9508 107.386C87.851 106.486 87.851 105.026 86.9508 104.126L74.3073 91.481C73.8286 91.0026 73.1635 90.7581 72.4889 90.8134L71.7581 90.8733C68.3847 91.1499 65.0503 90.411 62.139 88.7795L63.6204 87.2927C72.3819 86.7523 80.5848 83.0606 86.8091 76.8361ZM34.4689 61.5309C33.6989 62.3012 32.6752 62.725 31.5867 62.725C30.4977 62.725 29.4742 62.3012 28.7044 61.5309L22.4758 55.3025C20.8865 53.7132 20.8865 51.1271 22.4758 49.5376C23.2458 48.7674 24.2695 48.3435 25.3582 48.3435C26.447 48.3435 27.4707 48.7674 28.2405 49.5376L34.4691 55.766C36.0582 57.3553 36.0582 59.9414 34.4689 61.5309ZM43.4938 52.506C41.9043 54.0953 39.3177 54.0953 37.7289 52.506L31.5002 46.2774L28.4032 43.1803C26.8139 41.591 26.8139 39.0049 28.4032 37.4156C29.1732 36.6454 30.1969 36.2216 31.2854 36.2216C32.3744 36.2216 33.3979 36.6454 34.1677 37.4156L43.4931 46.7411C43.4931 46.7411 43.4931 46.7411 43.4934 46.7411C44.2636 47.5113 44.6874 48.5348 44.6874 49.6236C44.6874 50.7123 44.2636 51.736 43.4938 52.506ZM52.5183 43.4813C50.9288 45.0704 48.3424 45.0706 46.7534 43.4813L35.1716 31.8996C34.4016 31.1296 33.9778 30.1063 33.9778 29.0173C33.9778 27.9286 34.4016 26.9049 35.1718 26.1351C35.9665 25.3404 37.0105 24.9431 38.0541 24.9431C39.0972 24.9431 40.1401 25.34 40.9345 26.1333L46.2131 31.4119L52.5178 37.7166H52.5181C53.2878 38.4866 53.7117 39.5099 53.7117 40.5989C53.7121 41.6878 53.2883 42.7116 52.5183 43.4813ZM61.543 34.4566C59.9537 36.0459 57.3676 36.0459 55.7783 34.4566L44.1965 22.8749C44.1954 22.8737 44.194 22.8726 44.1926 22.8712L41.9402 20.6188C40.3509 19.0293 40.3509 16.4434 41.9402 14.8539C42.7349 14.059 43.7789 13.6617 44.8227 13.6617C45.8665 13.6617 46.9105 14.059 47.705 14.8539L61.5425 28.6915C62.3128 29.4615 62.7366 30.485 62.7366 31.5737C62.7368 32.6629 62.3132 33.6869 61.543 34.4566ZM62.1491 22.7783L55.8177 16.4469C56.5356 16.6001 57.2738 16.6815 58.0251 16.6813C58.0419 16.6813 58.059 16.6813 58.0761 16.6813L64.402 16.6515C65.6748 16.6455 66.7023 15.6087 66.6963 14.3356C66.6903 13.0661 65.6594 12.0412 64.3914 12.0412C64.3877 12.0412 64.384 12.0412 64.3803 12.0412L58.0544 12.071C58.0447 12.071 58.0355 12.071 58.0258 12.071C56.4672 12.071 55.0011 11.466 53.8958 10.366C52.7836 9.25879 52.1712 7.78518 52.1712 6.21568V5.49801H67.9671C70.9344 5.49801 73.7956 6.74369 75.8173 8.91609L75.9111 9.0168L62.1491 22.7783Z" fill="#A68D7C" stroke="#F3F3F3" stroke-width="1.2" mask="url(#path-3-inside-1)"/>
</svg>
