<svg width="56" height="28" viewBox="0 0 56 28" fill="none" xmlns="http://www.w3.org/2000/svg">
<path d="M1.61825 1.92342L0.118694 1.7068H0V0.63916H8.07953V1.7068H7.85551C6.92937 1.60158 6.46797 1.92342 6.46797 2.77444V3.3098L9.93014 19.77L12.0098 8.97448L10.8563 3.52488C10.6239 2.1354 10.0488 1.60004 9.00734 1.7068H8.88865V0.63916H16.7408V1.7068H16.6288C15.3583 1.60158 14.7799 2.03019 14.7799 2.99106L18.2454 19.6633H18.4744L21.5956 3.84517V3.20459C21.5956 2.03019 21.0155 1.60158 19.7466 1.7068H19.4006V0.63916H26.2062V1.7068H25.8652L24.2469 1.92342L23.2088 4.05715L17.7823 27.8887H16.1691L12.8189 12.2857L9.35172 27.8903H7.62147L2.42403 3.52488L1.61825 1.92342Z" fill="black"/>
<path d="M38.2161 0.318744V9.72171H37.1779V9.40141C37.1779 4.05858 35.5647 1.38793 32.3315 1.38793C30.1365 1.28271 28.9847 2.35035 29.095 4.70225C29.095 5.87975 29.4428 7.05415 30.2519 8.12179L33.7141 11.0091L37.9854 14.964C39.1405 16.5639 39.7173 18.5955 39.7173 20.8391C39.7173 25.3293 37.4086 27.5729 32.9049 27.5729C31.173 27.5729 29.4428 27.0376 27.7108 25.8616L27.0154 27.4693H26.2063V17.9549H27.1324V18.2752C27.1324 21.1594 27.8228 23.2977 29.095 24.794C30.1365 25.8616 31.2884 26.397 32.5589 26.397C35.217 26.397 36.5995 25.0091 36.5995 22.1202C36.5995 19.4511 34.8659 16.8842 31.4037 14.4286C27.8212 11.9699 25.9772 9.29774 25.9772 6.1985C25.8619 4.27365 26.5573 2.77741 27.8212 1.70977C28.8643 0.532272 30.2519 0 31.9821 0C33.7157 0 35.2186 0.532272 36.7165 1.70668L37.524 0.317197H38.2161V0.318744Z" fill="black"/>
<path d="M46.3026 21.1579C46.3026 22.7594 45.4952 23.6151 43.7616 23.7218L44.5673 25.7534C45.1441 26.394 45.9532 26.7143 46.8794 26.7143L48.9573 25.8587L49.5358 22.8693V3.30981C49.4187 2.24217 48.9573 1.70835 47.9209 1.70835H47.1101V0.63916H55.9987V1.70835H55.1913C54.1531 1.70835 53.573 2.24217 53.6934 3.30981V22.1188C53.5747 25.9685 51.3797 27.8887 47.1101 27.9986C45.6072 27.8887 44.335 27.4648 43.5275 26.4992C42.2587 25.3233 41.6836 23.9338 41.6836 22.1173L42.6081 19.9805L44.1093 19.2331C45.3765 19.2347 46.1839 19.8752 46.3026 21.1579Z" fill="black"/>
</svg>
