<svg width="115" height="29" viewBox="0 0 115 29" fill="none" xmlns="http://www.w3.org/2000/svg">
<path fill-rule="evenodd" clip-rule="evenodd" d="M45.8121 10.374C45.9402 10.8389 47.3895 16.5053 44.8525 21.7073C44.6048 22.2146 41.7258 28.8636 33.9057 28.884C26.0856 28.8636 23.2066 22.2146 22.9589 21.7073C20.4215 16.5053 21.8712 10.8389 21.9993 10.3741C25.1144 0.088508 33.8771 0.232 33.8771 0.232H33.9335C33.9335 0.232 42.6969 0.088508 45.812 10.3739L45.8121 10.374ZM39.2715 24.7165C39.4676 24.2535 41.0665 21.1926 41.0697 14.5621C41.0723 7.93196 39.4619 4.87154 39.2663 4.40812C37.7786 0.0866517 33.9758 0.42108 33.9758 0.42108H33.8356C33.8356 0.42108 30.0322 0.0866522 28.5451 4.408C28.3491 4.87142 26.7501 7.93185 26.747 14.5619C26.7443 21.1925 28.3549 24.2534 28.5508 24.7164C30.038 29.0373 33.8409 28.7035 33.8409 28.7035H33.981C33.981 28.7035 37.7844 29.0373 39.2715 24.7164V24.7165ZM109.878 26.6703C114.838 23.7621 114.937 18.0187 114.937 18.0187H115V28.2908H94.2665V28.0942H96.489V0.7656H92.6239V20.6972C92.6239 29.2763 85.3146 28.9988 84.1012 28.9988C74.601 28.9988 74.2241 23.1886 74.2241 20.6562V0.782652H71.9357V0.586032H81.5354V0.785552H79.2475V22.7165C79.2475 24.383 79.6318 25.1706 79.8559 25.6551C81.5196 28.8966 84.6621 28.6696 85.03 28.6696C90.89 28.6696 92.3998 24.3606 92.3998 20.2676V0.784624H90.0961V0.58H114.128V9.42569H114.037C114.037 6.77509 112.091 4.37297 111.768 3.96372C109.619 0.873944 105.385 0.761192 105.385 0.761192H101.506V13.9613C105.013 13.9613 105.757 13.0824 106.047 12.8708C108.601 10.8865 108.116 8.23542 108.116 8.23542H108.31V20.0056H108.099C108.099 16.794 105.966 15.4475 105.401 15.0063C104.108 13.9917 101.506 14.1735 101.506 14.1735V28.0887H104.706C107.873 27.9364 109.635 26.806 109.877 26.6703H109.878ZM13.8113 28.768L2.5482 0.776156H0V0.58H9.96218L9.9606 0.78068H7.54766L15.953 21.0308L22.2466 0.78416H19.9237V0.581508H24.7468V0.78416H22.4704L13.8113 28.768ZM64.7057 1.24897C67.5356 1.8705 68.4753 0 68.4753 0V9.93435C67.4272 5.44504 64.5032 2.52428 64.2463 2.23694C62.8826 0.770936 61.4871 0.302296 59.9311 0.302296C56.469 0.377928 55.3945 3.56712 55.1539 4.081C53.7099 7.49673 53.694 13.014 53.694 13.4971C53.5656 18.9689 54.6406 22.9295 54.8167 23.5789C55.7475 26.9946 57.3195 27.8561 57.5764 28.0373C59.7065 29.2615 62.1273 28.4193 62.4175 28.3246C65.6423 27.0554 65.5619 23.4883 65.5619 23.4883V17.246H63.3964V17.0188H72.2996V17.2305H70.3429V28.37C68.8026 25.8457 65.7226 27.3123 65.1613 27.5389C62.0966 28.9292 61.086 28.8241 60.7007 28.8541C56.774 29.1707 54.0466 26.8739 53.8225 26.6928C48.9132 22.7472 48.3998 17.2005 48.3676 16.7474C47.7258 10.0818 50.8381 6.04557 50.9825 5.81902C55.0577 0.272368 58.9205 0.106024 59.5944 0.075748C61.4708 -0.075748 64.0322 1.12242 64.7057 1.24897Z" fill="black"/>
</svg>
