<svg width="168" height="186" viewBox="0 0 168 186" fill="none" xmlns="http://www.w3.org/2000/svg">
<path d="M108.858 185.639H35.896C32.124 185.639 29.0664 182.581 29.0664 178.809C29.0664 175.037 32.124 171.98 35.896 171.98H108.858C121.582 171.98 133.781 166.568 142.312 157.122C150.907 147.624 154.931 135.394 153.65 122.691C152.756 113.833 151.149 104.45 148.848 94.7942C139.013 50.7378 142.333 27.0442 146 15.6965C134.663 13.2588 125.543 14.4041 118.85 19.1428C110.602 24.9638 105.811 36.5952 105.338 51.8936L105.264 67.1394C105.243 70.9115 102.133 73.9585 98.403 73.9375C94.6309 73.9165 91.5839 70.8484 91.6049 67.0764L91.6889 51.7465C91.6889 51.6939 91.6889 51.6309 91.6889 51.5784C92.2668 31.846 99.1175 16.3689 110.97 7.99476C122.769 -0.337402 138.446 -1.45116 157.59 4.70602C159.775 5.41 161.572 7.00709 162.192 9.21358C162.801 11.3886 162.423 13.574 160.973 15.2972C160.143 16.6631 149.604 35.4814 162.16 91.7471C164.566 101.897 166.29 111.889 167.235 121.346C168.885 137.695 163.484 154.086 152.431 166.306C141.325 178.589 125.438 185.639 108.858 185.639Z" fill="white"/>
<path d="M100.406 157.49H21.9703C18.1982 157.49 15.1406 154.433 15.1406 150.66C15.1406 146.888 18.1982 143.831 21.9703 143.831H100.406C104.178 143.831 107.236 146.888 107.236 150.66C107.236 154.433 104.178 157.49 100.406 157.49Z" fill="white"/>
<path d="M100.409 129.373H7.26323C3.49117 129.373 0.433594 126.316 0.433594 122.544C0.433594 118.771 3.49117 115.714 7.26323 115.714H100.409C104.181 115.714 107.239 118.771 107.239 122.544C107.239 126.316 104.181 129.373 100.409 129.373Z" fill="white"/>
<path d="M100.406 100.195H21.9703C18.1982 100.195 15.1406 97.1373 15.1406 93.3653C15.1406 89.5932 18.1982 86.5356 21.9703 86.5356H100.406C104.178 86.5356 107.236 89.5932 107.236 93.3653C107.236 97.1373 104.178 100.195 100.406 100.195Z" fill="white"/>
<path d="M127.907 36.259C131.627 36.259 134.642 33.2436 134.642 29.5239C134.642 25.8042 131.627 22.7888 127.907 22.7888C124.187 22.7888 121.172 25.8042 121.172 29.5239C121.172 33.2436 124.187 36.259 127.907 36.259Z" fill="white"/>
</svg>
