<svg width="48" height="32" viewBox="0 0 48 32" fill="none" xmlns="http://www.w3.org/2000/svg">
<path fill-rule="evenodd" clip-rule="evenodd" d="M25.0089 31.5612V1.42829H21.9135V1.20203H32.1869C40.9695 1.20203 47.4584 6.39615 47.4584 16.4102C47.4584 26.5548 40.6713 31.5612 32.2797 31.5612H25.0089ZM29.8004 31.3536H32.0941C33.8088 31.3536 35.7487 31.1273 37.1466 30.2434C40.1678 28.248 42.0136 23.8446 42.0136 16.4102C42.0136 8.58047 40.7455 4.00671 37.0526 2.23762C35.6917 1.57872 33.8657 1.44694 31.6648 1.44694H29.8004V31.3536ZM0.539062 31.5599V31.3337H2.98988L13.9536 0.534424L24.8975 31.5599H16.5912V31.3337H19.6965C18.5442 28.0856 17.3907 24.8379 16.2362 21.5907H6.71249C6.71249 21.5907 3.42041 30.8414 3.2336 31.3337H5.55327V31.5599H0.539062ZM6.7694 21.3631H16.1607L11.4644 8.17767L6.7694 21.3631Z" fill="black"/>
</svg>
