<svg width="121" height="31" viewBox="0 0 121 31" fill="none" xmlns="http://www.w3.org/2000/svg">
<g clip-path="url(#clip0)">
<path d="M42.9005 17.9346C42.4444 14.1553 40.8081 11.3879 38.1066 9.82933C35.1052 8.09895 30.544 7.999 27.3002 9.59195C24.9591 10.7414 23.0485 12.959 22.1969 15.5046C21.3198 18.1314 21.3198 21.5796 22.1969 24.2595C22.7583 25.9774 23.5206 27.2299 24.6944 28.37C26.1042 29.738 27.9477 30.6095 30.056 30.9124C30.812 31.0186 33.1946 31.0218 33.976 30.9156C34.346 30.8656 34.9839 30.7282 35.3954 30.6126C39.2197 29.5288 41.8288 26.6521 42.7251 22.5323C42.9515 21.5266 43.0408 19.0903 42.9005 17.9346ZM34.9999 27.6235C34.5948 28.3825 33.8357 29.079 33.2169 29.2601C30.8407 29.9504 29.1374 27.7328 28.4772 23.0883C28.2635 21.5859 28.2667 17.4942 28.4804 15.7763C28.9461 12.0407 30.123 10.1417 31.9794 10.1385C32.815 10.1385 33.2807 10.3384 33.9346 10.9819C35.4911 12.5186 36.2311 15.4515 36.2183 20.0617C36.2119 23.7411 35.8388 26.0586 34.9999 27.6235Z" fill="black"/>
<path d="M81.8798 16.145C81.0122 12.2563 78.5339 9.57019 75.1816 8.89241C74.6681 8.78934 74.2056 8.76747 73.2073 8.80183C71.7082 8.85181 70.6748 9.07357 69.552 9.57956C69.1788 9.74823 68.8567 9.88566 68.8312 9.88566C68.8057 9.88566 68.8089 7.66178 68.8408 4.9444C68.8822 1.11508 68.8695 1.75688e-05 68.7897 1.75688e-05C68.5058 -0.00622928 59.6229 1.65543 59.524 1.7304C59.4506 1.78662 59.4219 1.9709 59.4379 2.24888C59.4666 2.73301 59.4092 2.69553 60.4904 2.93291C60.8158 3.00475 61.1985 3.14218 61.3389 3.24213C61.6993 3.49513 62.0023 4.03861 62.2096 4.82259C62.3755 5.44102 62.3946 5.88143 62.4712 10.0543C62.5477 14.3147 62.5349 18.6937 62.4137 26.7178L62.3627 30.0505L63.0006 30.191C63.9224 30.3972 66.5602 30.8251 67.4214 30.9126C68.6877 31.0375 71.638 31.0219 72.5789 30.8813C76.6584 30.2785 79.7332 27.9609 81.1653 24.4096C81.5449 23.4694 81.9117 22.017 82.0392 20.9426C82.1892 19.6807 82.1062 17.1601 81.8798 16.145ZM75.3985 22.3606C74.9998 24.8437 74.2726 26.7584 73.2583 27.9953C72.7671 28.595 71.9506 29.1634 71.3127 29.3477C70.9012 29.4664 70.0209 29.4945 69.2331 29.4133C69.0576 29.3946 68.8695 29.329 68.8152 29.2634C68.6653 29.0885 68.5058 17.5224 68.6047 14.1398L68.6845 11.4567L69.3798 11.26C70.4068 10.9695 71.5104 11.0163 72.2951 11.3787C73.8675 12.1095 74.901 13.9118 75.44 16.8665C75.6154 17.8317 75.5899 21.1706 75.3985 22.3606Z" fill="black"/>
<path d="M103.179 17.0819C102.777 13.2526 101.195 10.6195 98.5059 9.29832C96.1169 8.12704 92.4265 8.21137 89.7249 9.49822C87.1669 10.7195 85.4062 12.756 84.4239 15.6326C83.9135 17.1287 83.7509 18.3344 83.8019 20.2772C83.8338 21.5047 83.8912 22.1387 84.022 22.7041C85.0299 27.1112 88.1174 30.1097 92.4329 30.8718C93.3834 31.0405 95.5396 31.0436 96.4996 30.8781C97.8711 30.6438 99.4532 30.0472 100.448 29.3851C101.667 28.5792 102.914 27.3705 102.914 26.9925C102.914 26.7645 102.496 26.2367 102.314 26.2367C102.234 26.2367 101.896 26.4084 101.565 26.6208C100.375 27.3736 99.2363 27.6828 97.6543 27.6828C95.4726 27.6828 94.0883 27.1487 92.6976 25.7744C92.082 25.1653 91.8269 24.8374 91.5111 24.2345C90.8094 22.9071 90.433 21.3829 90.3756 19.6556L90.3501 18.9122L96.7867 18.8904L103.223 18.8685L103.252 18.4437C103.265 18.2095 103.233 17.5973 103.179 17.0819ZM95.9478 17.1537C94.133 17.2537 90.2321 17.3037 90.1842 17.2287C90.1173 17.1256 90.2799 15.6076 90.4426 14.8237C90.8285 12.9309 91.4505 11.5628 92.3021 10.7226C92.7614 10.2697 92.9688 10.1292 93.3451 10.0198C93.6035 9.94487 93.8937 9.8824 93.9926 9.88552C94.3913 9.88552 94.8634 10.0854 95.2142 10.404C96.1552 11.2536 96.6942 13.0777 96.7994 15.7763L96.8537 17.11L95.9478 17.1537Z" fill="black"/>
<path d="M109.831 30.9532C108.281 30.7908 105.815 30.2629 104.992 29.9162L104.591 29.7475L104.536 27.8016C104.508 26.7303 104.473 25.2998 104.46 24.622L104.438 23.3882L104.677 23.2758C104.811 23.2133 105.075 23.1571 105.27 23.1477L105.624 23.1321L105.924 23.8568C107.094 26.6803 108.469 28.2046 110.265 28.6668C110.951 28.8449 112.233 28.8449 112.74 28.67C114.159 28.1796 114.938 27.127 114.947 25.6871C114.957 23.9848 114 23.1665 110.386 21.7828C108.147 20.927 107.369 20.4866 106.437 19.5527C105.436 18.5469 104.954 17.4038 104.862 15.8108C104.753 13.8837 105.369 12.2626 106.731 10.8789C108.102 9.48587 109.885 8.73312 112.313 8.51448C114.45 8.32395 117.732 8.76748 119.451 9.47962L119.763 9.6108L119.821 11.3443C119.853 12.297 119.885 13.5776 119.891 14.1866L119.907 15.2954L119.486 15.4485C118.819 15.689 118.778 15.6609 118.405 14.6989C117.368 12.0033 116.159 10.729 114.281 10.3417C113.135 10.1043 112.179 10.3604 111.483 11.0882C110.941 11.6566 110.727 12.1595 110.676 13.0091C110.622 13.9274 110.788 14.424 111.362 15.0362C112.067 15.7921 113.225 16.4449 115.528 17.3881C118.35 18.5438 119.696 19.5214 120.427 20.9551C120.902 21.8859 121.036 22.6292 120.988 24.0598C120.953 25.1342 120.918 25.3529 120.669 26.0744C119.856 28.4232 118.022 29.9693 115.186 30.6939C114.226 30.9407 114.089 30.9532 112.179 30.9719C111.078 30.9813 110.022 30.975 109.831 30.9532Z" fill="black"/>
<path d="M0.114825 30.4409C0.0414646 30.4128 0.00637917 30.2004 0.00637917 29.8069C0.00637917 29.101 -0.038275 29.1322 1.35557 28.8792C2.42408 28.6856 2.80683 28.4857 3.27889 27.8797C4.1943 26.7053 4.39206 24.4408 4.39525 15.1205C4.39843 6.36871 4.2262 4.52589 3.27889 3.17344C2.85787 2.57687 2.14978 2.24891 0.963254 2.11148L0.0510333 2.00216L0.0255167 1.30563L0 0.605987L0.287062 0.556012C0.443352 0.531024 5.97409 0.518531 12.5733 0.531024L24.5757 0.556012L24.6332 0.896465C24.665 1.08387 24.7161 3.00478 24.7448 5.16931L24.8022 9.1017L24.1834 9.28599C23.2521 9.56397 23.2584 9.56709 22.8374 8.48014C21.8072 5.81274 20.627 4.27601 19.0131 3.5014C17.8999 2.9673 17.3832 2.9017 14.2383 2.9017H11.5016L11.4538 3.34835C11.3677 4.18543 11.2273 9.57959 11.2273 12.1189V14.652L12.0311 14.6489C12.4745 14.6458 13.3452 14.6145 13.9704 14.5771C14.9081 14.5208 15.1856 14.474 15.5811 14.296C16.5444 13.8587 17.2014 12.8967 17.6033 11.3318L17.8106 10.5229L18.5219 10.4979L19.2332 10.4729V15.5891V20.7084L18.5219 20.6834L17.8106 20.6584L17.6097 19.8494C17.2301 18.3283 16.5029 17.2414 15.6002 16.8509C15.1856 16.6698 14.1554 16.5667 12.1619 16.5073L11.2273 16.4792V18.4033C11.2273 20.4991 11.3453 23.332 11.4953 24.8719C11.7058 27.0177 12.2639 28.2015 13.2687 28.6294C13.46 28.7106 14.0661 28.8449 14.6179 28.9261C15.1697 29.0073 15.6864 29.1072 15.7693 29.151C15.983 29.2572 15.9958 30.3691 15.7852 30.4472C15.6226 30.5065 0.271115 30.5034 0.114825 30.4409Z" fill="black"/>
<path d="M42.9966 30.4252C42.9169 30.3753 42.8913 30.1785 42.9105 29.7662L42.936 29.179L43.239 29.1165C43.4049 29.0822 43.7653 29.0135 44.0396 28.9635C44.8816 28.8104 45.3665 28.3607 45.6376 27.4861C45.8608 26.7708 45.9565 24.4876 45.9629 19.8962C45.9693 14.2834 45.8513 12.9591 45.2708 12.2063C44.9582 11.8003 44.7317 11.6847 43.9694 11.541C43.5931 11.4692 43.1975 11.3942 43.0891 11.3723C42.9137 11.338 42.8945 11.2818 42.8945 10.8632C42.8945 10.4572 42.92 10.3822 43.0891 10.3166C43.3506 10.2136 51.9657 8.52379 52.2432 8.52379H52.4569L52.4154 9.7794C52.3931 10.4697 52.3548 11.4754 52.3325 12.0158L52.291 12.9965L52.6036 12.4468C53.602 10.6821 54.7247 9.58575 56.2142 8.91734C57.0308 8.54877 57.5794 8.43945 58.5905 8.43945C59.7897 8.43945 60.989 8.82363 60.989 9.20469C60.989 9.46081 58.8775 14.9268 58.7595 14.9705C58.7021 14.9924 58.2906 14.8362 57.8441 14.627C56.9127 14.1897 56.0356 13.9742 55.1872 13.9773C54.1282 13.9804 52.9481 14.3615 52.4824 14.8518C52.2815 15.0611 52.2815 15.0736 52.2336 18.2033C52.1858 21.3017 52.291 25.0842 52.4665 26.6053C52.6196 27.9015 52.9704 28.5387 53.6945 28.8354C53.9369 28.9354 55.4679 29.1384 55.9686 29.1415C56.0069 29.1415 56.026 29.4382 56.0133 29.8006L55.9878 30.4596L49.5512 30.4783C46.0076 30.4877 43.0604 30.4627 42.9966 30.4252Z" fill="black"/>
</g>
<defs>
<clipPath id="clip0">
<rect width="121" height="31" fill="white"/>
</clipPath>
</defs>
</svg>
