<svg width="124" height="30" viewBox="0 0 124 30" fill="none" xmlns="http://www.w3.org/2000/svg">
<g clip-path="url(#clip0)">
<path fill-rule="evenodd" clip-rule="evenodd" d="M22.2325 28.0045C21.9958 28.9429 21.9633 29.0374 21.7232 29.0374H19.0249V29.221H25.1363V29.0374H22.339C22.1581 29.0374 22.1884 28.9101 22.4083 28.0524L24.2881 20.8238H31.7296L34.0015 29.0374H30.9785V29.221H41.1476V29.0374H37.9862L29.553 0.0725098H29.5018L22.2325 28.0045ZM27.8858 6.97952L31.6718 20.641H24.3414L27.8858 6.97952ZM109.82 14.7694H112.146C114.207 14.7694 117.247 15.6484 117.247 19.2198V25.6872C117.247 28.3336 118.721 30.0002 121.323 30.0002C124.057 30.0002 124.014 27.266 124.014 25.2935V23.2148H123.83V25.2935C123.83 27.5371 123.561 29.4854 122.227 29.4854C121.045 29.4854 120.791 28.7595 120.791 25.7155V19.2198C120.791 16.2142 118.331 15.1126 114.532 14.6766C119.264 14.1192 121.045 11.1268 121.045 7.81784C121.045 2.92335 118.763 0.865968 112.886 0.865968L103.569 0.864005V1.04793H106.015C106.192 1.04793 106.276 1.097 106.276 1.19625V28.8879C106.276 28.9877 106.192 29.0374 106.015 29.0374H103.569V29.221H112.137V29.0374H110.079C109.902 29.0374 109.82 28.9877 109.82 28.8879V14.7694ZM109.82 1.04961H112.331C116.199 1.04961 117.293 3.96326 117.293 7.81784C117.293 11.4268 116.199 14.5858 112.331 14.5858H109.82V1.04961ZM47.471 28.8927C47.4408 28.9586 47.475 29.0374 47.618 29.0374L54.2933 29.039C56.3484 29.039 59.0011 26.029 59.0011 16.3294V15.3195H59.1868V29.2221H43.2485L55.3232 1.1912C55.3527 1.12615 55.3182 1.04793 55.1755 1.04793L48.0882 1.04961C46.2279 1.04961 43.5265 4.41298 43.5265 13.7598V14.7694H43.3411V0.865968H59.5577L47.471 28.8927ZM8.01074 1.04961C11.8797 1.04961 13.4548 3.96326 13.4548 7.81784C13.4548 11.4268 11.8797 14.3102 8.01074 14.3102H6.25039V1.04961H8.01074ZM0 0.864005V1.04793H2.44659C2.62353 1.04793 2.7062 1.097 2.7062 1.19625V28.8879C2.7062 28.9877 2.62353 29.0374 2.44659 29.0374H0V29.221L9.12306 29.2221C14.9992 29.2221 18.1343 26.798 18.1343 21.9049C18.1343 18.5163 16.2814 15.0675 10.4324 14.3805C15.4009 13.9205 17.1151 10.8299 17.1151 7.81784C17.1151 3.41288 14.4435 0.865968 8.56704 0.865968L0 0.864005ZM8.01074 14.4938C12.3734 14.4938 14.1037 17.4383 14.1037 21.9049C14.1037 25.7584 12.5591 29.039 8.93734 29.039L6.51 29.0374C6.33306 29.0374 6.25039 28.9877 6.25039 28.8879V14.4916L8.01074 14.4938ZM64.3033 28.0045C64.0655 28.9429 64.033 29.0374 63.7935 29.0374H61.0952V29.221H67.2072V29.0374H64.4089C64.2292 29.0374 64.2586 28.9101 64.4797 28.0524L66.3587 20.8238H73.8001L76.0726 29.0374H73.0485V29.221H83.2184V29.0374H80.0559L71.6233 0.0725098H71.5715L64.3033 28.0045ZM69.9567 6.97952L73.7415 20.641H66.4111L69.9567 6.97952Z" fill="black"/>
<path fill-rule="evenodd" clip-rule="evenodd" d="M84.5996 28.0045C84.362 28.9429 84.3306 29.0374 84.0908 29.0374H81.392V29.221H87.5036V29.0374H84.7057C84.526 29.0374 84.5557 28.9101 84.7759 28.0524L86.6558 20.8238H94.0969L96.3691 29.0374H93.3452V29.221H103.515V29.0374H100.354L91.9209 0.0725098H91.8691L84.5996 28.0045ZM90.2537 6.97952L94.0391 20.641H86.7078L90.2537 6.97952ZM78.0601 3.79896C78.0601 3.81017 78.0706 3.81438 78.0904 3.81438H78.5035V3.87971H77.0933V3.81438H77.4616C77.4823 3.81438 77.4914 3.81017 77.4914 3.79896V2.38503H76.1446V3.79896C76.1446 3.81017 76.154 3.81438 76.1741 3.81438H76.5424V3.87971H75.1328V3.81438H75.5459C75.566 3.81438 75.5753 3.81017 75.5753 3.79896V1.02438C75.5753 1.01429 75.566 1.00952 75.5459 1.00952H75.1328V0.943912H76.5424V1.00952H76.1741C76.154 1.00952 76.1446 1.01429 76.1446 1.02438V2.32027H77.4914V1.02438C77.4914 1.01429 77.4823 1.00952 77.4616 1.00952H77.0933V0.943912H78.5035V1.00952H78.0904C78.0706 1.00952 78.0601 1.01429 78.0601 1.02438V3.79896ZM81.9755 2.59391C81.8458 2.59391 81.7589 2.53447 81.7589 2.43438C81.7589 2.34382 81.8138 2.3469 81.8138 2.28045C81.8138 2.21316 81.7702 2.18232 81.7003 2.18232C81.6281 2.18232 81.4993 2.20615 81.4016 2.49999V3.79896C81.4016 3.81017 81.4107 3.81438 81.4311 3.81438H81.6841V3.87971H80.6916V3.81438H80.9438C80.9642 3.81438 80.9733 3.81017 80.9733 3.79896V2.1955C80.9733 2.18569 80.9642 2.18008 80.9438 2.18008H80.6916V2.11475H81.3892L81.4016 2.12737V2.40129C81.4761 2.17307 81.6369 2.07886 81.826 2.07886C82.0561 2.07886 82.2056 2.19858 82.2056 2.38391C82.2056 2.50083 82.1145 2.59391 81.9755 2.59391ZM85.6983 3.91531C86.0213 3.91531 86.2812 3.76027 86.4547 3.52279L86.4046 3.48298C86.2424 3.71036 86.025 3.85111 85.6983 3.85111C85.5788 3.85111 85.4826 3.82868 85.4002 3.75634C85.2643 3.6355 85.2218 3.49391 85.2218 2.99765C85.2218 2.96092 85.2221 2.95083 85.223 2.91718H86.4927L86.5051 2.90569C86.5051 2.57064 86.2719 2.07886 85.6983 2.07886C85.1689 2.07886 84.7711 2.49073 84.7711 2.99765C84.7711 3.50372 85.1689 3.91531 85.6983 3.91531ZM85.9338 2.23924C86.0312 2.34802 86.0629 2.51625 86.0706 2.85186H85.2241C85.2346 2.51625 85.2773 2.34802 85.4002 2.23924C85.4826 2.16662 85.5788 2.14419 85.6983 2.14419C85.8016 2.14419 85.8684 2.16662 85.9338 2.23924ZM79.3811 3.83457C79.6081 3.83457 79.7554 3.67447 79.7554 3.52139V2.91045C79.6498 2.97073 79.4966 2.97073 79.3613 2.99485C79.2092 3.02232 79.0462 3.10111 79.0462 3.48129C79.0462 3.77148 79.2381 3.83457 79.3811 3.83457ZM78.848 2.43774C78.848 2.29111 79.0346 2.07886 79.395 2.07886C79.9229 2.07886 80.1843 2.30933 80.1843 2.8269V3.66886C80.1843 3.76784 80.2321 3.80877 80.3017 3.80877C80.3833 3.80877 80.4487 3.74204 80.4662 3.70167L80.5095 3.74429C80.4829 3.81774 80.3476 3.91531 80.1755 3.91531C79.9801 3.91531 79.8083 3.80344 79.778 3.64812C79.7157 3.82503 79.5447 3.91531 79.2987 3.91531C78.8907 3.91531 78.6286 3.77457 78.6286 3.48129C78.6286 3.0484 79.0954 2.94774 79.2749 2.93344C79.528 2.91242 79.7554 2.89587 79.7554 2.80728V2.56587C79.7554 2.27036 79.6251 2.14419 79.395 2.14419C79.2797 2.14419 79.2081 2.19634 79.2081 2.31858C79.2081 2.38812 79.2446 2.40943 79.2446 2.47728C79.2446 2.55326 79.1838 2.62559 79.0394 2.62559C78.9021 2.62559 78.848 2.53139 78.848 2.43774ZM83.8162 2.23728C83.7395 2.16662 83.6356 2.14419 83.5246 2.14419C83.3712 2.14419 83.2302 2.24457 83.1325 2.35784V3.59176C83.1914 3.73868 83.3621 3.85111 83.5246 3.85111C83.6356 3.85111 83.7395 3.82924 83.8162 3.75774C83.9428 3.63915 84.028 3.43251 84.028 3.0083C84.028 2.58382 83.9428 2.35559 83.8162 2.23728ZM84.4637 3.0083C84.4637 3.46672 84.0704 3.91531 83.5246 3.91531C83.3576 3.91531 83.2302 3.81214 83.1325 3.71232V5.07971C83.1325 5.08924 83.1427 5.094 83.1625 5.094H83.4148V5.15933H82.4231V5.094H82.675C82.6951 5.094 82.7045 5.08924 82.7045 5.07971V2.1955C82.7045 2.18569 82.6951 2.18008 82.675 2.18008H82.4231V2.11475H83.1203L83.1325 2.12737V2.28466C83.2302 2.18401 83.3576 2.07886 83.5246 2.07886C84.0704 2.07886 84.4637 2.54933 84.4637 3.0083ZM89.8778 2.12821C89.9248 2.12821 89.9508 2.10915 89.9559 2.0912H90.0275V2.52858H89.9559C89.9559 2.27429 89.7257 2.14419 89.5078 2.14419C89.2821 2.14419 89.1731 2.24457 89.1731 2.40298C89.1731 2.60681 89.3209 2.71055 89.6564 2.80363C90.0077 2.90148 90.239 3.07139 90.239 3.33662C90.239 3.67223 89.9653 3.91531 89.5273 3.91531C89.2671 3.91531 89.1544 3.79531 89.0197 3.79531C88.9896 3.7943 88.9599 3.80237 88.9346 3.81844C88.9093 3.83452 88.8895 3.85784 88.8778 3.88531H88.8054L88.8303 3.30354H88.9028C88.8906 3.60858 89.1788 3.85111 89.5273 3.85111C89.7906 3.85111 89.9398 3.73167 89.9398 3.50933C89.9398 3.28756 89.7634 3.19924 89.4415 3.10195C89.1267 3.00774 88.9076 2.88101 88.9076 2.60681C88.9076 2.28186 89.2255 2.07886 89.5078 2.07886C89.6918 2.07886 89.709 2.12821 89.8778 2.12821ZM88.5695 1.51503C88.5695 1.39672 88.6709 1.30027 88.796 1.30027C88.9316 1.30027 89.0321 1.39784 89.0321 1.54083C89.0321 1.75195 88.8396 1.9998 88.5755 2.15709L88.5333 2.10999C88.7241 2.00064 88.8614 1.86578 88.9427 1.67429C88.9076 1.7127 88.8589 1.73036 88.796 1.73036C88.6709 1.73036 88.5695 1.63447 88.5695 1.51503ZM87.9968 2.59391C87.8677 2.59391 87.7802 2.53447 87.7802 2.43438C87.7802 2.34382 87.8354 2.3469 87.8354 2.28045C87.8354 2.21316 87.7913 2.18232 87.7211 2.18232C87.6492 2.18232 87.5201 2.20615 87.423 2.49999V3.79896C87.423 3.81017 87.4312 3.81438 87.4516 3.81438H87.7044V3.87971H86.7118V3.81438H86.9652C86.985 3.81438 86.9946 3.81017 86.9946 3.79896V2.1955C86.9946 2.18569 86.985 2.18008 86.9652 2.18008H86.7118V2.11475H87.4099L87.423 2.12737V2.40129C87.498 2.17307 87.6579 2.07886 87.8485 2.07886C88.0764 2.07886 88.2278 2.19858 88.2278 2.38391C88.2278 2.50083 88.135 2.59391 87.9968 2.59391Z" fill="black"/>
</g>
<defs>
<clipPath id="clip0">
<rect width="124" height="30" fill="white"/>
</clipPath>
</defs>
</svg>
