<svg width="237" height="34" viewBox="0 0 237 34" fill="none" xmlns="http://www.w3.org/2000/svg">
<g clip-path="url(#clip0)">
<path d="M17.775 3.94395C17.775 1.22395 15.3277 0.543945 13.3957 0.543945V0.951945C14.5549 0.951945 15.4565 1.35995 15.4565 2.31195C15.4565 2.85595 15.0701 3.67195 13.9109 3.67195C13.0092 3.67195 11.0772 3.12795 9.66033 2.58395C7.98587 1.90395 6.44022 1.35995 5.15217 1.35995C2.57609 1.35995 0.772826 3.39995 0.772826 5.71195C0.772826 7.75195 2.18967 8.43195 2.70489 8.70395L2.8337 8.43195C2.57609 8.15995 2.18967 7.88795 2.18967 7.07195C2.18967 6.52795 2.70489 5.57595 3.99293 5.57595C5.15217 5.57595 6.69783 6.11995 8.7587 6.79995C10.562 7.34395 12.494 7.75195 13.5245 7.88795V12.1039L11.5924 13.8719V14.0079L13.5245 15.7759V21.6239C12.494 22.3039 11.3348 22.4399 10.3043 22.4399C8.37228 22.4399 6.69783 21.8959 5.28098 20.2639L10.562 17.5439V8.15995L4.12174 11.1519C4.63696 9.38395 6.0538 8.15995 7.47065 7.34395L7.34185 6.93595C3.47772 8.02395 0 11.8319 0 16.4559C0 21.896 4.25054 25.976 9.0163 25.976C14.1685 25.976 17.5174 21.624 17.5174 17.136H17.2598C16.487 18.9039 15.3277 20.5359 13.9109 21.3519V15.7759L15.9717 14.0079V13.8719L13.9109 12.1039V7.88795C15.8429 7.88795 17.775 6.52795 17.775 3.94395ZM6.56902 18.9039L5.02337 19.7199C4.12174 18.4959 3.60652 16.8639 3.60652 14.5519C3.60652 13.5999 3.60652 12.5119 3.86413 11.6959L6.56902 10.4719V18.9039ZM20.2223 22.0319L18.5478 23.392L18.8054 23.6639L19.5783 22.9839L22.412 25.704L26.2761 22.9839L26.1473 22.712L25.1168 23.392L23.8288 22.0319V12.7839L24.8592 11.9679L27.0489 13.8719V22.1679C27.0489 27.3359 26.0185 28.152 23.8288 28.968V29.376C27.4353 29.512 30.7842 28.288 30.7842 21.6239V12.6479L31.9435 11.6959L31.6859 11.4239L30.6554 12.2399L27.4353 9.38395L23.8288 12.2399V1.08795H23.5712L19.063 4.35195V4.62395C19.5783 4.89595 20.3511 5.16795 20.3511 6.66395L20.2223 22.0319ZM43.7935 20.5359L40.5734 23.1199L37.3533 20.4V18.768L43.4071 14.4159V14.2799L40.3158 9.38395L33.6179 13.1919V22.1679L32.3299 23.256L32.5875 23.5279L33.7467 22.576L38.1261 25.976L43.9223 21.08L43.7935 20.5359ZM37.3533 18.2239V11.5599L37.6109 11.4239L40.4446 16.1839L37.3533 18.2239ZM68.3951 2.71995C68.3951 2.31195 68.2663 1.90395 68.1375 1.49595H67.8799C67.4935 2.58395 66.9783 3.12795 65.6902 3.12795C64.531 3.12795 63.7581 2.44795 63.2429 1.90395L59.5076 6.39195L59.7652 6.66395L61.0533 5.43995C61.8261 6.11995 62.4701 6.66395 64.2734 6.79995V18.0879L56.6739 4.35195C56.0299 3.26395 55.1283 1.76795 53.325 1.76795C51.2641 1.76795 49.4609 3.67195 49.7185 6.66395H50.1049C50.2337 5.84795 50.6201 4.89595 51.5217 4.89595C52.1658 4.89595 52.8098 5.57595 53.1962 6.25595V10.7439C50.8777 10.7439 49.3321 11.8319 49.3321 13.8719C49.3321 14.9599 49.8473 16.5919 51.3929 16.9999V16.7279C51.1353 16.4559 51.0065 16.1839 51.0065 15.7759C51.0065 15.0959 51.5217 14.5519 52.4234 14.5519H53.0674V20.2639C50.3625 20.2639 48.1728 21.896 48.1728 24.616C48.1728 27.2 50.2337 28.424 52.5522 28.288V28.016C51.1353 27.88 50.4913 27.1999 50.4913 26.2479C50.4913 25.0239 51.2641 24.4799 52.2946 24.4799C53.325 24.4799 54.2266 25.16 54.8706 25.976L58.606 21.6239L58.3484 21.3519L57.4467 22.4399C56.0299 21.08 55.2571 20.6719 53.5826 20.4V6.79995L63.887 25.84H64.6598V6.79995C66.5918 6.66395 68.3951 5.03195 68.3951 2.71995ZM77.7978 20.5359L74.5777 23.1199L71.3576 20.4V18.768L77.4114 14.4159V14.2799L74.3201 9.38395L67.6223 13.1919V22.1679L66.3342 23.256L66.5918 23.5279L67.7511 22.576L72.1304 25.976L77.9266 21.08L77.7978 20.5359ZM71.3576 18.2239V11.5599L71.6152 11.4239L74.4489 16.1839L71.3576 18.2239ZM98.7929 10.8799L97.8913 11.5599L95.444 9.38395L92.6103 12.1039L93.7696 13.3279V23.5279L90.6783 21.4879V13.0559L91.7087 12.3759L88.7462 9.38395L85.9125 12.1039L87.0717 13.3279V23.1199L86.6853 23.392L83.9804 21.3519V13.1919C83.9804 11.2879 83.0788 10.7439 82.0484 10.0639C81.1467 9.38395 80.6315 8.97595 80.6315 8.02395C80.6315 7.20795 81.4043 6.79995 81.7908 6.52795V6.25595C80.7603 6.25595 78.0554 7.34395 78.0554 9.92795C78.0554 11.2879 78.6994 11.8319 79.3435 12.5119C79.9875 13.1919 80.6315 13.7359 80.6315 14.9599V22.8479L79.2147 23.936L79.4723 24.2079L80.7603 23.1199L83.7228 25.84L86.9429 23.5279L90.5495 25.84L97.3761 21.6239V12.5119L99.0505 11.1519L98.7929 10.8799ZM122.751 3.39995L121.462 4.62395L118.629 1.90395L114.378 5.16795V2.17595H113.992L114.121 24.2079C113.734 24.2079 112.575 23.9359 111.673 23.6639L111.416 5.30395C111.416 3.94395 110.514 2.03995 108.196 2.03995C105.877 2.03995 104.332 3.94395 104.332 5.84795H104.718C104.847 5.03195 105.233 4.35195 106.006 4.35195C106.779 4.35195 107.423 4.89595 107.423 6.66395V11.9679C105.104 12.1039 103.687 13.4639 103.687 15.2319C103.687 16.3199 104.203 17.9519 105.748 17.9519V17.6799C105.233 17.4079 105.104 16.9999 105.104 16.7279C105.104 15.9119 105.748 15.6399 106.779 15.6399H107.294V24.072C105.362 24.752 104.589 26.2479 104.589 27.88C104.589 30.192 106.264 31.824 108.84 31.824C110.643 31.824 112.189 31.552 113.734 31.144C115.022 30.872 116.697 30.464 117.47 30.464C118.5 30.464 118.886 31.0079 118.886 31.688C118.886 32.6399 118.5 33.048 117.985 33.184V33.456C120.046 33.048 121.334 31.688 121.334 29.648C121.334 27.608 119.402 26.3839 117.341 26.3839C116.31 26.3839 114.121 26.792 112.575 27.0639C110.772 27.472 108.968 27.7439 108.453 27.7439C107.552 27.7439 106.521 27.336 106.521 25.976C106.521 24.888 107.423 23.936 109.612 23.936C110.772 23.936 112.189 24.072 113.605 24.4799C115.151 24.888 116.568 25.296 117.856 25.296C119.788 25.296 121.462 24.6159 121.462 21.76V5.03195L123.008 3.67195L122.751 3.39995ZM117.47 11.6959C117.083 12.1039 116.568 12.5119 115.924 12.5119C115.28 12.5119 114.636 12.1039 114.378 11.6959V5.71195L115.666 4.75995L117.47 6.52795V11.6959ZM117.47 15.7759C117.212 15.5039 116.568 15.0959 115.924 15.0959C115.28 15.0959 114.636 15.5039 114.378 15.7759V12.2399C114.636 12.5119 115.28 12.9199 115.924 12.9199C116.568 12.9199 117.212 12.5119 117.47 12.2399V15.7759ZM117.47 22.1679C117.47 23.2559 116.826 24.344 115.409 24.344H114.378V16.3199C114.636 16.0479 115.28 15.6399 115.924 15.6399C116.568 15.6399 117.083 16.0479 117.47 16.3199V22.1679ZM135.116 12.5119L130.994 9.38395L124.683 13.1919V22.0319L123.395 23.1199L123.523 23.392L124.554 22.576L128.676 25.84L135.116 21.76V12.5119ZM128.16 21.08V11.2879L131.38 13.7359V23.392L128.16 21.08ZM147.352 9.65595H147.095C146.708 9.92795 146.322 10.1999 145.935 10.1999C145.42 10.1999 144.776 9.92795 144.518 9.51995H144.261L142.071 12.1039L139.882 9.51995L136.017 12.2399L136.146 12.5119L137.177 11.8319L138.465 13.3279V21.896L136.79 23.256L137.048 23.5279L137.821 22.8479L140.912 25.5679L144.905 22.712L144.776 22.4399L143.617 23.1199L142.071 21.76V12.2399C142.715 12.9199 143.488 13.5999 144.39 13.5999C146.193 13.7359 147.223 11.8319 147.352 9.65595ZM162.809 22.712L158.429 25.84L152.504 16.3199L156.755 9.38395H157.012C157.528 9.92795 158.301 10.4719 159.202 10.4719C160.104 10.4719 160.748 9.92795 161.134 9.38395H161.392C161.263 12.1039 159.46 13.7359 158.172 13.7359C156.884 13.7359 156.24 13.0559 155.467 12.6479L155.08 13.3279L161.521 23.392L162.809 22.576V22.712ZM148.64 22.0319L146.966 23.392L147.223 23.6639L147.996 22.9839L150.83 25.704L154.694 22.9839L154.436 22.712L153.406 23.392L152.118 22.0319V1.08795H151.989L147.352 4.35195V4.62395C147.867 4.89595 148.64 5.03195 148.64 6.66395V22.0319ZM184.19 3.94395C184.19 1.22395 181.743 0.543945 179.811 0.543945V0.951945C180.97 0.951945 181.872 1.35995 181.872 2.31195C181.872 2.85595 181.485 3.67195 180.326 3.67195C179.424 3.67195 177.492 3.12795 176.076 2.58395C174.401 2.03995 172.855 1.49595 171.567 1.49595C168.991 1.49595 167.188 3.53595 167.188 5.84795C167.188 7.88795 168.605 8.56795 169.12 8.83995L169.249 8.56795C168.862 8.29595 168.476 8.02395 168.476 7.20795C168.476 6.66395 168.991 5.71195 170.279 5.71195C171.439 5.71195 172.984 6.25595 175.045 6.93595C176.848 7.47995 178.78 7.88795 179.811 8.02395V12.2399L177.879 14.0079V14.1439L179.811 15.9119V21.76C178.78 22.4399 177.621 22.576 176.591 22.576C174.659 22.576 172.984 22.0319 171.567 20.4L176.848 17.6799V8.15995L170.408 11.1519C171.052 9.38395 172.469 8.15995 173.757 7.20795L173.628 6.93595C169.764 8.02395 166.286 11.6959 166.286 16.3199C166.286 21.76 170.537 25.84 175.303 25.84C180.455 25.84 183.804 21.4879 183.804 16.9999H183.546C182.773 18.768 181.614 20.4 180.197 21.216V15.6399L182.258 13.8719V13.7359L180.326 11.9679V7.88795C182.258 7.88795 184.19 6.52795 184.19 3.94395ZM172.984 18.9039L171.439 19.7199C170.537 18.4959 170.022 16.8639 170.022 14.5519C170.022 13.5999 170.151 12.5119 170.408 11.6959L173.113 10.4719L172.984 18.9039ZM188.698 2.58395H188.57L185.993 4.89595V5.03195L188.183 7.61595H188.441L191.017 5.30395V5.16795L188.698 2.58395ZM192.562 22.712L191.532 23.392L190.244 22.0319V12.6479L191.532 11.6959L191.274 11.4239L190.373 12.2399L188.054 9.38395L184.319 12.1039L184.577 12.5119L185.478 11.8319L186.637 13.3279V22.1679L184.963 23.5279L185.092 23.7999L185.993 23.1199L188.827 25.84L192.691 23.1199L192.562 22.712ZM214.073 22.576L213.171 23.256L211.754 21.896V12.6479L213.042 11.5599L212.785 11.2879L211.754 12.2399L208.792 9.38395L204.928 12.2399L201.965 9.38395L198.359 12.2399L196.04 9.38395L192.305 12.1039L192.434 12.5119L193.335 11.8319L194.623 13.3279V22.1679L193.593 23.256L196.555 25.84L199.389 23.1199L198.23 21.896V12.6479L199.389 11.8319L201.321 13.7359V21.896L200.291 22.9839L203.253 25.5679L206.087 22.8479L204.928 21.6239V12.6479L205.958 11.9679L208.019 13.8719V22.0319L207.117 22.9839L210.08 25.84L214.073 22.9839V22.576ZM225.279 20.5359L222.059 23.1199L218.839 20.4V18.768L224.892 14.4159V14.2799L221.801 9.38395L215.103 13.1919V22.4399L219.611 25.84L225.408 20.9439L225.279 20.5359ZM218.839 18.2239V11.5599L219.096 11.4239L221.93 16.1839L218.839 18.2239ZM237 16.9999L234.553 14.9599C236.227 13.4639 236.871 11.4239 236.871 10.0639V9.24795H236.614C236.356 9.92795 235.841 10.6079 234.81 10.6079C233.78 10.6079 233.136 10.0639 232.492 9.24795L226.696 12.6479V17.5439L228.885 19.3119C226.696 21.3519 226.309 22.712 226.309 23.7999C226.309 25.16 226.953 26.1119 227.984 26.52L228.112 26.2479C227.855 25.976 227.597 25.84 227.597 25.16C227.597 24.752 228.112 24.072 229.143 24.072C230.431 24.072 231.204 25.024 231.59 25.432L237.129 21.896V16.9999H237ZM235.583 12.9199C234.682 14.5519 232.749 16.1839 231.59 16.9999L230.173 15.7759V11.0159C230.689 12.3759 232.105 13.4639 233.522 13.4639C234.424 13.4639 234.939 13.3279 235.583 12.9199ZM233.393 23.7999C232.749 22.3039 231.204 21.216 229.658 21.216C229.272 21.216 228.241 21.216 227.211 21.896C227.855 20.808 229.529 18.9039 231.719 17.5439L233.265 18.9039L233.393 23.7999Z" fill="black"/>
</g>
<defs>
<clipPath id="clip0">
<rect width="237" height="34" fill="white"/>
</clipPath>
</defs>
</svg>
