<svg width="200" height="279" viewBox="0 0 200 279" fill="none" xmlns="http://www.w3.org/2000/svg">
<g filter="url(#filter0_d)">
<path fill-rule="evenodd" clip-rule="evenodd" d="M195.793 0.315918H4.28906V201.305H195.793V0.315918ZM96.0516 224.145H58.0892V233.281H96.0516V224.145ZM87.105 242.417H58.0892V251.553H87.105V242.417ZM96.0516 260.688H58.0892V269.824H96.0516V260.688ZM121.138 236.58C121.138 239.371 125.067 240.45 129.662 241.655L129.685 241.662C136.754 243.564 145.499 245.917 145.499 255.994C145.499 262.972 141.087 270.459 128.513 270.459C121.32 270.459 115.214 267.984 110.862 263.226L110.439 262.719L115.516 255.359L116.181 256.121C117.693 257.897 122.045 262.021 128.876 262.021C134.498 262.021 136.492 259.293 136.492 256.755C136.492 253.392 132.261 252.25 127.364 250.982C120.534 249.205 112.01 246.921 112.01 237.087C112.01 228.967 118.599 223.32 128.09 223.32C134.618 223.32 140.18 225.604 144.29 229.791L144.774 230.299L139.696 237.341L139.092 236.707C136.13 233.598 131.959 231.885 127.425 231.885C123.677 231.885 121.138 233.788 121.138 236.58ZM33.3049 253.012V224.145H42.2514V269.824H33.9094L13.1752 240.006V269.824H4.28906V224.145H12.9938L33.3049 253.012ZM157.831 224.145H195.793V233.281H181.286V269.824H172.399V233.281H157.831V224.145ZM143.565 57.9862C143.565 57.9862 132.744 72.7685 143.565 123.65C149.791 151.185 149.187 173.58 143.625 192.169H13.0542V9.45181H56.5779C50.9561 28.0408 50.3516 50.4364 56.5779 77.9709C67.3984 128.853 56.5779 143.635 56.5779 143.635C86.984 153.913 99.3158 134.816 100.041 111.152L100.102 90.4693C100.767 66.8048 113.098 47.7083 143.565 57.9862ZM121.803 66.551C121.803 69.7232 124.221 72.261 127.243 72.261C130.266 72.261 132.684 69.7232 132.684 66.551C132.684 63.3789 130.266 60.8411 127.243 60.8411C124.221 60.8411 121.803 63.3789 121.803 66.551Z" fill="white"/>
</g>
<defs>
<filter id="filter0_d" x="0.289062" y="0.315918" width="199.504" height="278.143" filterUnits="userSpaceOnUse" color-interpolation-filters="sRGB">
<feFlood flood-opacity="0" result="BackgroundImageFix"/>
<feColorMatrix in="SourceAlpha" type="matrix" values="0 0 0 0 0 0 0 0 0 0 0 0 0 0 0 0 0 0 127 0"/>
<feOffset dy="4"/>
<feGaussianBlur stdDeviation="2"/>
<feColorMatrix type="matrix" values="0 0 0 0 0 0 0 0 0 0 0 0 0 0 0 0 0 0 0.45 0"/>
<feBlend mode="normal" in2="BackgroundImageFix" result="effect1_dropShadow"/>
<feBlend mode="normal" in="SourceGraphic" in2="effect1_dropShadow" result="shape"/>
</filter>
</defs>
</svg>
